{"glyphs":{"0":{"ha":411,"x_min":33,"x_max":378,"o":"m 258 978 q 342 943 307 978 q 378 858 378 908 l 378 115 q 342 31 378 65 q 258 -4 307 -4 l 153 -4 q 68 31 103 -4 q 33 115 33 65 l 33 858 q 68 943 33 908 q 153 978 103 978 l 258 978 m 235 140 l 235 833 q 229 847 235 842 q 215 853 224 853 l 196 853 q 182 847 188 853 q 176 833 176 842 l 176 140 q 182 126 176 132 q 196 121 188 121 l 215 121 q 229 126 224 121 q 235 140 235 132 z "},"1":{"ha":269,"x_min":17,"x_max":235,"o":"m 90 964 l 136 972 l 233 972 l 233 0 l 90 0 l 90 839 l 17 825 l 17 951 l 90 964 z "},"2":{"ha":403,"x_min":28,"x_max":372,"o":"m 147 978 l 253 978 q 337 943 301 978 q 372 858 372 908 l 372 679 q 349 563 372 618 l 171 125 l 229 125 l 229 186 l 372 186 l 372 0 l 28 0 l 28 131 l 207 563 q 229 679 229 618 l 229 833 q 224 847 229 842 q 210 853 218 853 l 190 853 q 176 847 182 853 q 171 833 171 842 l 171 643 l 28 643 l 28 858 q 63 943 28 908 q 147 978 97 978 z "},"3":{"ha":410,"x_min":32,"x_max":376,"o":"m 257 978 q 341 943 306 978 q 376 858 376 908 l 376 626 q 315 488 376 543 l 315 486 q 376 347 376 431 l 376 115 q 341 31 376 65 q 257 -4 306 -4 l 151 -4 q 67 31 101 -4 q 32 115 32 65 l 32 331 l 175 331 l 175 140 q 181 126 175 132 q 194 121 186 121 l 214 121 q 228 126 222 121 q 233 140 233 132 l 233 338 q 200 404 233 379 q 169 415 186 415 l 74 415 l 74 557 l 168 557 q 199 568 185 557 l 200 569 q 233 636 233 594 l 233 833 q 228 847 233 842 q 214 853 222 853 l 194 853 q 181 847 186 853 q 175 833 175 842 l 175 643 l 32 643 l 32 858 q 67 943 32 908 q 151 978 101 978 l 257 978 z "},"4":{"ha":436,"x_min":31,"x_max":407,"o":"m 376 972 l 376 329 l 406 329 l 406 186 l 376 186 l 376 0 l 233 0 l 233 186 l 32 186 l 32 900 l 175 900 l 175 329 l 233 329 l 233 972 l 376 972 z "},"5":{"ha":408,"x_min":33,"x_max":378,"o":"m 176 599 l 276 599 q 348 569 318 599 q 378 497 378 539 l 378 115 q 342 30 378 65 q 258 -6 307 -6 l 153 -6 q 68 30 103 -6 q 33 115 33 65 l 33 331 l 176 331 l 176 140 q 182 126 176 132 q 196 121 188 121 l 215 121 q 229 126 224 121 q 235 140 235 132 l 235 454 q 229 468 235 463 q 215 474 224 474 l 33 474 l 33 972 l 378 972 l 378 847 l 176 847 l 176 599 z "},"6":{"ha":411,"x_min":33,"x_max":378,"o":"m 153 978 l 258 978 q 342 943 307 978 q 378 858 378 908 l 378 643 l 235 643 l 235 833 q 229 847 235 842 q 215 853 224 853 l 196 853 q 182 847 188 853 q 176 833 176 842 l 176 599 l 276 599 q 348 569 318 599 q 378 497 378 539 l 378 115 q 342 30 378 65 q 258 -6 307 -6 l 153 -6 q 68 30 103 -6 q 33 115 33 65 l 33 858 q 68 943 33 908 q 153 978 103 978 m 215 474 l 176 474 l 176 140 q 182 126 176 132 q 196 121 188 121 l 215 121 q 229 126 224 121 q 235 140 235 132 l 235 454 q 229 468 235 463 q 215 474 224 474 z "},"7":{"ha":381,"x_min":69,"x_max":356,"o":"m 229 847 l 69 847 l 69 972 l 354 972 l 354 847 l 300 411 q 275 -1 275 210 l 149 -1 l 149 0 q 175 414 149 211 l 229 847 z "},"8":{"ha":411,"x_min":33,"x_max":378,"o":"m 258 978 q 342 943 307 978 q 378 858 378 908 l 378 575 q 336 485 378 521 q 378 394 378 449 l 378 115 q 342 31 378 65 q 258 -4 307 -4 l 153 -4 q 68 31 103 -4 q 33 115 33 65 l 33 394 q 74 485 33 449 q 33 575 33 521 l 33 858 q 68 943 33 908 q 153 978 103 978 l 258 978 m 235 217 l 235 396 q 229 410 235 404 q 215 415 224 415 l 196 415 q 178 403 183 415 q 176 399 176 401 q 176 396 176 397 l 176 172 q 176 172 176 172 q 176 169 176 171 l 176 140 q 182 126 176 132 q 196 121 188 121 l 215 121 q 229 126 224 121 q 235 140 235 132 l 235 169 q 235 172 235 171 q 235 172 235 172 l 235 217 m 235 654 l 235 833 q 229 847 235 842 q 215 853 224 853 l 196 853 q 178 840 183 853 q 176 837 176 839 q 176 833 176 835 l 176 614 q 176 613 176 614 q 176 611 176 611 l 176 578 q 182 564 176 569 q 196 558 188 558 l 215 558 q 229 564 224 558 q 235 578 235 569 l 235 611 q 235 613 235 611 q 235 614 235 614 l 235 654 z "},"9":{"ha":411,"x_min":32,"x_max":378,"o":"m 153 978 l 258 978 q 342 943 307 978 q 378 858 378 908 l 378 115 q 342 30 378 65 q 258 -6 307 -6 l 153 -6 q 68 30 103 -6 q 33 115 33 65 l 33 331 l 176 331 l 176 140 q 182 126 176 132 q 196 121 188 121 l 215 121 q 229 126 224 121 q 235 140 235 132 l 235 375 l 135 375 q 63 405 93 375 q 33 476 33 435 l 33 858 q 68 943 33 908 q 153 978 103 978 m 235 688 l 235 833 q 229 847 235 842 q 215 853 224 853 l 196 853 q 182 847 188 853 q 176 833 176 842 l 176 519 q 182 506 176 511 q 196 500 188 500 l 235 500 l 235 688 z "},"\u000b":{"ha":732,"x_min":69,"x_max":663,"o":"m 69 972 l 663 972 l 663 0 l 69 0 l 69 972 m 108 944 l 365 515 l 624 944 l 108 944 m 349 486 l 99 903 l 99 68 l 349 486 m 367 457 l 110 29 l 624 29 l 367 457 m 383 486 l 635 65 l 635 906 l 383 486 z "},"\f":{"ha":732,"x_min":69,"x_max":663,"o":"m 69 972 l 663 972 l 663 0 l 69 0 l 69 972 m 108 944 l 365 515 l 624 944 l 108 944 m 349 486 l 99 903 l 99 68 l 349 486 m 367 457 l 110 29 l 624 29 l 367 457 m 383 486 l 635 65 l 635 906 l 383 486 z "},"¤":{"ha":732,"x_min":69,"x_max":663,"o":"m 69 972 l 663 972 l 663 0 l 69 0 l 69 972 m 108 944 l 365 515 l 624 944 l 108 944 m 349 486 l 99 903 l 99 68 l 349 486 m 367 457 l 110 29 l 624 29 l 367 457 m 383 486 l 635 65 l 635 906 l 383 486 z "},"¦":{"ha":732,"x_min":69,"x_max":663,"o":"m 69 972 l 663 972 l 663 0 l 69 0 l 69 972 m 108 944 l 365 515 l 624 944 l 108 944 m 349 486 l 99 903 l 99 68 l 349 486 m 367 457 l 110 29 l 624 29 l 367 457 m 383 486 l 635 65 l 635 906 l 383 486 z "},"¨":{"ha":732,"x_min":69,"x_max":663,"o":"m 69 972 l 663 972 l 663 0 l 69 0 l 69 972 m 108 944 l 365 515 l 624 944 l 108 944 m 349 486 l 99 903 l 99 68 l 349 486 m 367 457 l 110 29 l 624 29 l 367 457 m 383 486 l 635 65 l 635 906 l 383 486 z "},"¬":{"ha":732,"x_min":69,"x_max":663,"o":"m 69 972 l 663 972 l 663 0 l 69 0 l 69 972 m 108 944 l 365 515 l 624 944 l 108 944 m 349 486 l 99 903 l 99 68 l 349 486 m 367 457 l 110 29 l 624 29 l 367 457 m 383 486 l 635 65 l 635 906 l 383 486 z "},"¯":{"ha":732,"x_min":69,"x_max":663,"o":"m 69 972 l 663 972 l 663 0 l 69 0 l 69 972 m 108 944 l 365 515 l 624 944 l 108 944 m 349 486 l 99 903 l 99 68 l 349 486 m 367 457 l 110 29 l 624 29 l 367 457 m 383 486 l 635 65 l 635 906 l 383 486 z "},"±":{"ha":732,"x_min":69,"x_max":663,"o":"m 69 972 l 663 972 l 663 0 l 69 0 l 69 972 m 108 944 l 365 515 l 624 944 l 108 944 m 349 486 l 99 903 l 99 68 l 349 486 m 367 457 l 110 29 l 624 29 l 367 457 m 383 486 l 635 65 l 635 906 l 383 486 z "},"´":{"ha":732,"x_min":69,"x_max":663,"o":"m 69 972 l 663 972 l 663 0 l 69 0 l 69 972 m 108 944 l 365 515 l 624 944 l 108 944 m 349 486 l 99 903 l 99 68 l 349 486 m 367 457 l 110 29 l 624 29 l 367 457 m 383 486 l 635 65 l 635 906 l 383 486 z "},"µ":{"ha":732,"x_min":69,"x_max":663,"o":"m 69 972 l 663 972 l 663 0 l 69 0 l 69 972 m 108 944 l 365 515 l 624 944 l 108 944 m 349 486 l 99 903 l 99 68 l 349 486 m 367 457 l 110 29 l 624 29 l 367 457 m 383 486 l 635 65 l 635 906 l 383 486 z "},"¶":{"ha":732,"x_min":69,"x_max":663,"o":"m 69 972 l 663 972 l 663 0 l 69 0 l 69 972 m 108 944 l 365 515 l 624 944 l 108 944 m 349 486 l 99 903 l 99 68 l 349 486 m 367 457 l 110 29 l 624 29 l 367 457 m 383 486 l 635 65 l 635 906 l 383 486 z "},"¸":{"ha":732,"x_min":69,"x_max":663,"o":"m 69 972 l 663 972 l 663 0 l 69 0 l 69 972 m 108 944 l 365 515 l 624 944 l 108 944 m 349 486 l 99 903 l 99 68 l 349 486 m 367 457 l 110 29 l 624 29 l 367 457 m 383 486 l 635 65 l 635 906 l 383 486 z "},"―":{"ha":732,"x_min":69,"x_max":663,"o":"m 69 972 l 663 972 l 663 0 l 69 0 l 69 972 m 108 944 l 365 515 l 624 944 l 108 944 m 349 486 l 99 903 l 99 68 l 349 486 m 367 457 l 110 29 l 624 29 l 367 457 m 383 486 l 635 65 l 635 906 l 383 486 z "},"‖":{"ha":732,"x_min":69,"x_max":663,"o":"m 69 972 l 663 972 l 663 0 l 69 0 l 69 972 m 108 944 l 365 515 l 624 944 l 108 944 m 349 486 l 99 903 l 99 68 l 349 486 m 367 457 l 110 29 l 624 29 l 367 457 m 383 486 l 635 65 l 635 906 l 383 486 z "},"‗":{"ha":732,"x_min":69,"x_max":663,"o":"m 69 972 l 663 972 l 663 0 l 69 0 l 69 972 m 108 944 l 365 515 l 624 944 l 108 944 m 349 486 l 99 903 l 99 68 l 349 486 m 367 457 l 110 29 l 624 29 l 367 457 m 383 486 l 635 65 l 635 906 l 383 486 z "},"‚":{"ha":732,"x_min":69,"x_max":663,"o":"m 69 972 l 663 972 l 663 0 l 69 0 l 69 972 m 108 944 l 365 515 l 624 944 l 108 944 m 349 486 l 99 903 l 99 68 l 349 486 m 367 457 l 110 29 l 624 29 l 367 457 m 383 486 l 635 65 l 635 906 l 383 486 z "},"‛":{"ha":732,"x_min":69,"x_max":663,"o":"m 69 972 l 663 972 l 663 0 l 69 0 l 69 972 m 108 944 l 365 515 l 624 944 l 108 944 m 349 486 l 99 903 l 99 68 l 349 486 m 367 457 l 110 29 l 624 29 l 367 457 m 383 486 l 635 65 l 635 906 l 383 486 z "},"‟":{"ha":732,"x_min":69,"x_max":663,"o":"m 69 972 l 663 972 l 663 0 l 69 0 l 69 972 m 108 944 l 365 515 l 624 944 l 108 944 m 349 486 l 99 903 l 99 68 l 349 486 m 367 457 l 110 29 l 624 29 l 367 457 m 383 486 l 635 65 l 635 906 l 383 486 z "},"‡":{"ha":732,"x_min":69,"x_max":663,"o":"m 69 972 l 663 972 l 663 0 l 69 0 l 69 972 m 108 944 l 365 515 l 624 944 l 108 944 m 349 486 l 99 903 l 99 68 l 349 486 m 367 457 l 110 29 l 624 29 l 367 457 m 383 486 l 635 65 l 635 906 l 383 486 z "},"‣":{"ha":732,"x_min":69,"x_max":663,"o":"m 69 972 l 663 972 l 663 0 l 69 0 l 69 972 m 108 944 l 365 515 l 624 944 l 108 944 m 349 486 l 99 903 l 99 68 l 349 486 m 367 457 l 110 29 l 624 29 l 367 457 m 383 486 l 635 65 l 635 906 l 383 486 z "},"․":{"ha":732,"x_min":69,"x_max":663,"o":"m 69 972 l 663 972 l 663 0 l 69 0 l 69 972 m 108 944 l 365 515 l 624 944 l 108 944 m 349 486 l 99 903 l 99 68 l 349 486 m 367 457 l 110 29 l 624 29 l 367 457 m 383 486 l 635 65 l 635 906 l 383 486 z "},"‥":{"ha":732,"x_min":69,"x_max":663,"o":"m 69 972 l 663 972 l 663 0 l 69 0 l 69 972 m 108 944 l 365 515 l 624 944 l 108 944 m 349 486 l 99 903 l 99 68 l 349 486 m 367 457 l 110 29 l 624 29 l 367 457 m 383 486 l 635 65 l 635 906 l 383 486 z "},"\u0000":{"ha":0,"x_min":0,"x_max":0,"o":""},"\n":{"ha":0,"x_min":0,"x_max":0,"o":""},"\r":{"ha":0,"x_min":0,"x_max":0,"o":""}," ":{"ha":244,"x_min":0,"x_max":0,"o":""},"!":{"ha":224,"x_min":29,"x_max":194,"o":"m 171 0 l 51 0 l 51 117 l 171 117 l 171 0 m 149 140 l 75 140 l 29 976 l 194 976 l 149 140 z "},"\"":{"ha":293,"x_min":18,"x_max":274,"o":"m 150 983 l 274 983 l 249 761 l 176 761 l 150 983 m 44 761 l 19 983 l 143 983 l 117 761 l 44 761 z "},"#":{"ha":432,"x_min":24,"x_max":407,"o":"m 407 538 l 356 538 l 350 440 l 385 440 l 385 340 l 342 340 l 318 7 l 199 7 l 222 340 l 189 340 l 165 7 l 46 7 l 69 340 l 25 340 l 25 440 l 78 440 l 83 538 l 47 538 l 47 633 l 89 633 l 114 983 l 233 983 l 208 633 l 242 633 l 267 983 l 386 983 l 361 633 l 407 633 l 407 538 m 197 440 l 231 440 l 236 538 l 203 538 l 197 440 z "},"$":{"ha":333,"x_min":33,"x_max":300,"o":"m 299 914 l 299 614 l 190 614 q 203 592 196 601 l 258 510 q 282 460 274 488 q 294 400 289 433 q 299 324 299 367 l 299 106 q 276 36 299 61 q 222 3 257 14 l 222 -125 l 118 -125 l 118 3 q 93 13 106 7 q 63 33 75 21 l 61 33 q 41 64 49 46 q 33 104 33 82 l 33 440 l 153 440 q 138 471 146 458 l 110 514 q 83 556 96 536 q 58 605 69 578 q 40 667 47 632 q 33 750 33 701 l 33 913 q 63 976 33 953 q 118 1006 85 996 l 118 1133 l 222 1133 l 222 1004 q 274 974 253 993 q 292 947 286 961 q 299 914 299 932 m 179 104 l 179 253 q 174 350 179 310 q 160 421 168 390 q 153 440 156 431 l 153 104 q 156 99 153 100 q 168 94 160 94 q 178 97 174 94 q 179 104 179 100 m 179 635 l 179 913 q 178 917 179 915 q 168 919 174 919 q 156 915 160 919 q 153 913 153 914 l 153 775 q 160 697 153 731 q 178 638 167 664 q 179 635 179 638 z "},"%":{"ha":728,"x_min":22,"x_max":706,"o":"m 271 446 q 243 415 261 429 q 202 396 225 403 q 153 389 179 389 q 104 396 128 389 q 63 416 81 403 q 33 447 44 429 q 22 489 22 467 l 22 785 q 33 824 22 806 q 63 856 44 842 q 104 876 81 868 q 153 883 128 883 q 201 876 178 883 q 243 857 225 869 q 272 826 261 844 q 283 786 283 807 l 283 486 q 271 446 283 465 m 164 474 l 164 797 q 163 799 164 797 q 153 801 158 801 q 143 799 147 801 l 142 797 l 142 475 q 144 472 143 474 q 153 471 146 471 q 163 472 160 471 q 164 474 164 474 m 379 1001 l 503 1001 l 369 7 l 246 7 l 379 1001 m 693 563 q 704 522 704 544 l 704 221 q 693 182 704 200 q 664 151 682 165 q 624 131 647 139 q 575 124 600 124 q 525 131 549 124 q 483 151 501 139 q 454 183 465 165 q 443 224 443 203 l 443 521 q 454 561 443 542 q 483 592 465 578 q 525 613 501 606 q 575 619 549 619 q 624 613 600 619 q 664 593 647 606 q 693 563 682 581 m 585 210 l 585 533 q 583 535 585 535 q 575 538 581 538 q 564 535 569 538 q 563 533 564 533 l 563 211 q 565 208 564 210 q 575 207 568 207 q 583 208 581 207 q 585 210 585 210 z "},"&":{"ha":392,"x_min":33,"x_max":372,"o":"m 188 569 l 371 569 l 371 478 l 307 476 l 307 90 q 294 51 307 69 q 264 22 283 35 q 221 3 246 10 q 169 -4 196 -4 q 119 3 143 -4 q 76 22 94 10 q 47 53 58 35 q 35 92 35 71 l 35 460 q 47 503 35 486 q 76 528 60 519 q 75 529 75 529 q 47 556 60 539 q 35 603 35 574 l 35 917 q 47 956 35 938 q 76 986 58 974 q 119 1004 94 997 q 169 1011 143 1011 q 221 1006 196 1011 q 264 986 246 999 q 294 956 283 974 q 307 917 307 938 l 307 600 l 188 600 l 188 919 q 185 921 186 919 q 169 924 179 924 q 157 921 163 924 q 154 919 156 919 l 154 603 q 157 581 154 588 q 164 574 160 575 q 179 569 169 569 q 188 569 182 569 m 185 86 q 188 89 188 88 l 188 476 q 178 476 183 476 q 163 474 168 476 q 157 469 158 472 q 154 458 154 467 l 154 89 q 157 86 154 89 q 169 82 163 82 q 185 86 179 82 z "},"'":{"ha":163,"x_min":19,"x_max":143,"o":"m 19 983 l 143 983 l 117 761 l 44 761 l 19 983 z "},"(":{"ha":329,"x_min":31,"x_max":260,"o":"m 154 701 q 150 610 150 657 q 150 513 150 563 q 150 414 150 463 q 153 314 150 363 q 164 224 157 265 q 182 150 169 182 q 208 104 193 121 q 243 89 224 89 l 260 89 l 260 7 l 243 7 q 151 33 189 7 q 90 99 114 58 q 56 192 68 139 q 38 299 43 243 q 31 410 32 354 q 31 513 31 465 q 32 614 31 561 q 38 718 32 667 q 56 817 43 769 q 90 901 68 864 q 151 961 114 939 q 243 983 189 983 l 260 983 l 260 901 l 243 901 q 208 889 222 901 q 182 849 192 875 q 164 785 169 822 q 154 701 157 746 z "},")":{"ha":329,"x_min":69,"x_max":299,"o":"m 290 718 q 293 692 290 718 q 297 614 296 667 q 299 513 299 561 q 297 410 299 465 q 290 299 296 354 q 274 192 285 243 q 239 99 261 139 q 178 33 215 58 q 86 7 140 7 l 69 7 l 69 89 l 86 89 q 119 104 106 89 q 147 150 136 121 q 165 224 158 182 q 175 315 172 267 q 178 414 178 363 q 179 513 179 465 q 178 610 179 560 q 175 701 178 657 q 165 785 172 746 q 147 849 158 822 q 121 889 136 875 q 86 901 107 901 l 69 901 l 69 983 l 86 983 q 178 961 139 983 q 238 901 214 939 q 274 817 261 864 q 290 718 285 769 z "},"*":{"ha":394,"x_min":21,"x_max":375,"o":"m 374 758 l 335 689 l 242 736 l 243 638 l 158 638 l 157 732 l 74 686 l 28 756 l 111 803 l 21 849 l 60 918 l 154 869 l 153 969 l 236 969 l 239 874 l 318 918 l 364 849 l 285 804 l 374 758 z "},"+":{"ha":465,"x_min":19,"x_max":446,"o":"m 292 528 l 444 528 l 444 428 l 292 428 l 292 288 l 172 288 l 172 428 l 19 428 l 19 528 l 172 528 l 172 668 l 292 668 l 292 528 z "},",":{"ha":183,"x_min":21,"x_max":163,"o":"m 163 13 l 21 13 l 21 131 l 163 131 l 163 13 z "},"-":{"ha":400,"x_min":19,"x_max":381,"o":"m 379 393 l 19 393 l 19 493 l 379 493 l 379 393 z "},".":{"ha":185,"x_min":21,"x_max":167,"o":"m 21 131 l 165 131 l 115 -92 l 21 -92 l 21 131 z "},"/":{"ha":283,"x_min":15,"x_max":272,"o":"m 149 1001 l 272 1001 l 139 7 l 15 7 l 149 1001 z "},":":{"ha":189,"x_min":24,"x_max":165,"o":"m 165 533 l 24 533 l 24 650 l 165 650 l 165 533 m 165 182 l 24 182 l 24 300 l 165 300 l 165 182 z "},";":{"ha":194,"x_min":26,"x_max":172,"o":"m 168 533 l 26 533 l 26 650 l 168 650 l 168 533 m 26 300 l 171 300 l 121 76 l 26 76 l 26 300 z "},"=":{"ha":361,"x_min":24,"x_max":338,"o":"m 338 489 l 24 489 l 24 589 l 338 589 l 338 489 m 338 367 l 24 367 l 24 467 l 338 467 l 338 367 z "},"?":{"ha":325,"x_min":26,"x_max":300,"o":"m 211 7 l 92 7 l 92 107 l 211 107 l 211 7 m 256 971 q 287 933 275 956 q 299 882 299 911 l 299 758 q 293 678 299 711 q 279 619 288 644 l 263 564 q 253 533 257 546 q 240 489 242 496 q 224 436 235 471 q 213 367 215 407 q 211 268 211 325 l 211 147 l 92 147 l 92 319 q 99 420 92 379 q 117 492 106 461 l 157 600 q 173 665 167 628 q 179 758 179 703 l 179 881 q 172 908 179 900 q 163 914 167 914 q 153 908 158 914 q 146 881 146 900 l 146 621 l 26 621 l 26 881 q 38 933 26 911 q 69 971 50 956 q 114 994 89 986 q 211 994 163 1008 q 256 971 236 986 z "},"@":{"ha":646,"x_min":33,"x_max":613,"o":"m 586 875 q 611 776 611 832 l 611 182 q 597 116 611 143 q 559 74 582 89 q 508 55 536 58 q 455 58 481 51 q 410 82 429 65 q 399 93 404 88 q 388 82 394 88 q 343 58 368 65 q 290 55 318 51 q 239 74 263 58 q 201 116 215 89 q 186 182 186 143 l 186 776 q 207 838 186 811 q 258 874 228 861 q 322 886 288 885 q 386 876 357 888 q 438 839 417 864 q 458 775 458 814 l 458 181 q 465 150 458 160 q 475 143 471 143 q 485 150 479 143 q 492 182 492 160 l 492 778 q 478 835 492 811 q 440 875 464 858 q 386 900 417 892 q 258 900 322 917 q 204 875 228 892 q 167 835 181 860 q 153 779 153 811 l 153 182 q 168 106 153 136 q 208 56 183 75 q 269 25 235 36 q 346 10 307 14 q 428 4 386 4 q 508 4 471 4 l 531 4 l 497 -81 l 486 -81 q 385 -79 438 -81 q 283 -72 333 -79 q 189 -49 233 -64 q 108 -4 143 -33 q 53 71 74 25 q 33 179 33 115 l 33 776 q 58 875 33 832 q 125 946 85 917 q 218 988 165 974 q 428 988 322 1015 q 519 946 479 974 q 586 875 561 918 m 339 181 l 339 775 q 333 794 339 789 q 322 800 328 800 q 311 794 317 800 q 306 775 306 789 l 306 181 q 313 150 306 160 q 322 143 318 143 q 332 150 326 143 q 339 181 339 160 z "},"A":{"ha":408,"x_min":32,"x_max":376,"o":"m 83 922 q 108 947 83 922 q 204 972 133 972 q 326 922 275 972 q 376 800 376 871 l 376 0 l 233 0 l 233 168 l 175 168 l 175 0 l 32 0 l 32 800 q 83 922 32 871 m 233 292 l 233 800 q 225 821 233 813 q 204 829 217 829 q 183 821 192 829 q 175 800 175 813 l 175 292 l 233 292 z "},"B":{"ha":408,"x_min":35,"x_max":379,"o":"m 260 972 q 344 937 308 972 q 379 853 379 901 l 379 501 q 340 392 379 439 q 379 282 379 344 l 379 118 q 348 38 379 72 q 272 0 317 4 q 260 -1 265 -1 l 178 -1 l 35 -1 l 35 972 l 178 972 l 260 972 m 236 144 l 236 300 q 228 320 236 311 q 207 329 219 329 l 207 329 l 178 329 l 178 125 l 217 125 q 231 131 225 125 q 236 144 236 136 m 236 483 l 236 826 q 231 841 236 835 q 217 847 225 847 l 178 847 l 178 454 l 207 454 q 228 463 219 454 q 236 483 236 471 z "},"C":{"ha":400,"x_min":29,"x_max":374,"o":"m 80 927 q 105 952 80 927 q 201 978 131 978 q 323 927 272 978 q 374 806 374 876 l 374 454 l 231 454 l 231 824 q 222 844 231 835 q 201 853 214 853 q 181 844 189 853 q 172 824 172 835 l 172 149 q 181 128 172 136 q 201 119 189 119 q 222 128 214 119 q 231 149 231 136 l 231 329 l 374 329 l 374 175 q 320 47 374 100 q 192 -6 267 -6 q 77 42 125 -6 q 29 157 29 90 l 29 806 q 80 927 29 876 z "},"D":{"ha":411,"x_min":35,"x_max":379,"o":"m 260 972 q 344 937 308 972 q 379 853 379 901 l 379 119 q 344 35 379 69 q 260 0 308 0 l 35 0 l 35 972 l 260 972 m 236 144 l 236 826 q 231 841 236 835 q 217 847 225 847 l 178 847 l 178 125 l 217 125 q 231 131 225 125 q 236 144 236 136 z "},"E":{"ha":381,"x_min":35,"x_max":382,"o":"m 178 331 l 178 125 l 381 125 l 381 0 l 35 0 l 35 972 l 368 972 l 368 847 l 178 847 l 178 454 l 283 454 l 283 331 l 178 331 z "},"F":{"ha":360,"x_min":35,"x_max":369,"o":"m 283 331 l 178 331 l 178 0 l 35 0 l 35 972 l 368 972 l 368 847 l 178 847 l 178 454 l 283 454 l 283 331 z "},"G":{"ha":401,"x_min":29,"x_max":374,"o":"m 80 927 q 105 952 80 927 q 201 978 131 978 q 323 927 272 978 q 374 806 374 876 l 374 535 l 231 535 l 231 824 q 222 844 231 835 q 201 853 214 853 q 181 844 189 853 q 172 824 172 835 l 172 149 q 181 128 172 136 q 201 119 189 119 q 222 128 214 119 q 231 149 231 136 l 231 332 l 190 332 l 190 456 l 374 456 l 374 167 q 323 45 374 96 q 201 -6 272 -6 q 80 45 131 -6 q 29 167 29 96 l 29 806 q 80 927 29 876 z "},"H":{"ha":414,"x_min":35,"x_max":379,"o":"m 236 454 l 236 972 l 379 972 l 379 0 l 236 0 l 236 331 l 178 331 l 178 0 l 35 0 l 35 972 l 178 972 l 178 454 l 236 454 z "},"I":{"ha":213,"x_min":35,"x_max":178,"o":"m 178 0 l 35 0 l 35 972 l 178 972 l 178 0 z "},"J":{"ha":372,"x_min":-6,"x_max":340,"o":"m 197 139 l 197 972 l 340 972 l 340 157 q 292 42 340 90 q 178 -6 244 -6 l 158 -6 q 44 42 92 -6 q -4 157 -4 90 l -4 329 l 139 329 l 139 139 q 144 125 139 131 q 158 119 150 119 l 178 119 q 192 125 186 119 q 197 139 197 131 z "},"K":{"ha":413,"x_min":33,"x_max":379,"o":"m 236 483 l 236 972 l 379 972 l 379 501 q 340 392 379 439 q 379 282 379 344 l 379 0 l 236 0 l 236 300 q 228 320 236 311 q 207 329 219 329 l 207 329 l 178 329 l 178 0 l 35 0 l 35 972 l 178 972 l 178 454 l 207 454 q 228 463 219 454 q 236 483 236 471 z "},"L":{"ha":319,"x_min":35,"x_max":332,"o":"m 178 972 l 178 125 l 331 125 l 331 0 l 35 0 l 35 972 l 178 972 z "},"M":{"ha":564,"x_min":33,"x_max":529,"o":"m 282 438 l 369 972 l 529 972 l 529 0 l 386 0 l 386 464 l 310 0 l 254 0 l 178 464 l 178 0 l 35 0 l 35 972 l 194 972 l 282 438 z "},"N":{"ha":483,"x_min":35,"x_max":449,"o":"m 306 453 l 306 972 l 447 972 l 447 0 l 307 0 l 178 519 l 178 0 l 35 0 l 35 972 l 182 972 l 306 453 z "},"O":{"ha":403,"x_min":29,"x_max":374,"o":"m 80 927 q 105 952 80 927 q 201 978 131 978 q 323 927 272 978 q 374 806 374 876 l 374 167 q 323 45 374 96 q 201 -6 272 -6 q 80 45 131 -6 q 29 167 29 96 l 29 806 q 80 927 29 876 m 231 149 l 231 824 q 222 844 231 835 q 201 853 214 853 q 181 844 189 853 q 172 824 172 835 l 172 149 q 181 128 172 138 q 201 119 189 119 q 222 128 214 119 q 231 149 231 138 z "},"P":{"ha":393,"x_min":35,"x_max":379,"o":"m 260 972 q 344 937 308 972 q 379 853 379 901 l 379 439 q 344 355 379 390 q 260 319 308 319 l 178 319 l 178 0 l 35 0 l 35 972 l 260 972 m 236 465 l 236 826 q 231 841 236 835 q 217 847 225 847 l 178 847 l 178 446 l 217 446 q 231 451 225 446 q 236 465 236 457 z "},"Q":{"ha":404,"x_min":29,"x_max":374,"o":"m 80 927 q 105 952 80 927 q 201 978 131 978 q 323 927 272 978 q 374 806 374 876 l 374 167 q 335 57 374 106 q 374 -53 374 10 l 374 -147 l 231 -147 l 231 -35 q 222 -14 231 -22 q 201 -6 214 -6 q 199 -6 200 -6 q 79 46 129 -4 q 29 167 29 96 l 29 806 q 80 927 29 876 m 172 149 q 181 128 172 138 q 201 119 189 119 q 222 128 214 119 q 231 149 231 138 l 231 824 q 222 844 231 835 q 201 853 214 853 q 181 844 189 853 q 172 824 172 835 l 172 149 z "},"R":{"ha":411,"x_min":35,"x_max":379,"o":"m 260 972 q 344 937 308 972 q 379 853 379 901 l 379 501 q 340 392 379 439 q 379 282 379 344 l 379 0 l 236 0 l 236 300 q 228 320 236 311 q 207 329 219 329 l 207 329 l 178 329 l 178 0 l 35 0 l 35 972 l 178 972 l 260 972 m 236 483 l 236 826 q 231 841 236 835 q 217 847 225 847 l 178 847 l 178 454 l 207 454 q 228 463 219 454 q 236 483 236 471 z "},"S":{"ha":394,"x_min":25,"x_max":371,"o":"m 77 927 q 102 952 77 927 q 199 978 128 978 q 320 927 269 978 q 371 806 371 876 l 371 544 q 361 535 371 535 l 238 535 q 228 544 228 535 l 228 824 q 219 844 228 835 q 199 853 211 853 q 178 844 186 853 q 169 824 169 835 l 169 560 q 206 485 169 514 l 228 469 l 293 419 q 371 263 371 360 l 371 167 q 320 45 371 96 q 199 -6 269 -6 q 77 45 128 -6 q 26 167 26 96 l 26 319 q 36 329 26 329 l 160 329 q 169 319 169 329 l 169 149 q 178 128 169 138 q 199 119 186 119 q 219 128 211 119 q 228 149 228 138 l 228 251 q 192 326 228 299 l 169 343 l 100 396 q 26 546 26 453 l 26 806 q 77 927 26 876 z "},"T":{"ha":389,"x_min":-12,"x_max":400,"o":"m -11 849 l -11 972 l 399 972 l 399 849 l 265 849 l 265 0 l 122 0 l 122 849 l -11 849 z "},"U":{"ha":408,"x_min":31,"x_max":376,"o":"m 233 149 l 233 972 l 376 972 l 376 167 q 326 45 376 96 q 204 -6 275 -6 q 83 45 133 -6 q 32 167 32 96 l 32 972 l 175 972 l 175 149 q 183 128 175 138 q 204 119 192 119 q 225 128 217 119 q 233 149 233 138 z "},"V":{"ha":388,"x_min":3,"x_max":385,"o":"m 240 972 l 385 972 l 265 0 l 121 0 l 122 0 l 3 972 l 147 972 l 193 336 l 240 972 z "},"W":{"ha":535,"x_min":7,"x_max":528,"o":"m 382 972 l 526 972 l 431 0 l 300 0 l 265 426 l 228 0 l 99 0 l 7 972 l 151 972 l 171 394 l 219 972 l 315 972 l 358 394 l 382 972 z "},"X":{"ha":411,"x_min":32,"x_max":378,"o":"m 235 483 l 235 972 l 378 972 l 378 501 q 339 392 378 439 q 378 282 378 343 l 378 0 l 235 0 l 235 300 q 226 320 235 311 q 206 329 218 329 l 206 329 q 185 320 193 329 q 176 300 176 311 l 176 0 l 33 0 l 33 282 q 72 392 33 343 q 33 501 33 439 l 33 972 l 176 972 l 176 483 q 185 463 176 471 q 206 454 193 454 l 206 454 q 226 463 218 454 q 235 483 235 471 z "},"Y":{"ha":375,"x_min":14,"x_max":360,"o":"m 217 483 l 217 972 l 360 972 l 360 501 q 332 408 360 450 q 258 344 304 365 l 258 0 l 115 0 l 115 344 q 43 408 71 365 q 15 501 15 450 l 15 972 l 158 972 l 158 483 q 167 463 158 471 q 188 454 175 454 q 208 463 200 454 q 217 483 217 471 z "},"Z":{"ha":351,"x_min":3,"x_max":343,"o":"m 46 972 l 342 972 l 342 847 l 154 125 l 342 125 l 342 0 l 3 0 l 3 125 l 190 847 l 46 847 l 46 972 z "},"[":{"ha":311,"x_min":35,"x_max":242,"o":"m 242 971 l 154 971 l 154 36 l 242 36 l 242 -46 l 35 -46 l 35 1054 l 242 1054 l 242 971 z "},"\\":{"ha":283,"x_min":11,"x_max":268,"o":"m 135 1001 l 268 7 l 144 7 l 11 1001 l 135 1001 z "},"]":{"ha":311,"x_min":69,"x_max":276,"o":"m 69 1054 l 276 1054 l 276 -46 l 69 -46 l 69 36 l 157 36 l 157 971 l 69 971 l 69 1054 z "},"^":{"ha":299,"x_min":18,"x_max":281,"o":"m 218 650 l 279 428 l 158 428 l 149 539 l 139 428 l 18 428 l 79 650 l 218 650 z "},"_":{"ha":431,"x_min":35,"x_max":396,"o":"m 394 -103 l 35 -103 l 35 -3 l 394 -3 l 394 -103 z "},"a":{"ha":408,"x_min":32,"x_max":376,"o":"m 83 922 q 108 947 83 922 q 204 972 133 972 q 326 922 275 972 q 376 800 376 871 l 376 0 l 233 0 l 233 168 l 175 168 l 175 0 l 32 0 l 32 800 q 83 922 32 871 m 233 292 l 233 800 q 225 821 233 813 q 204 829 217 829 q 183 821 192 829 q 175 800 175 813 l 175 292 l 233 292 z "},"b":{"ha":408,"x_min":35,"x_max":379,"o":"m 260 972 q 344 937 308 972 q 379 853 379 901 l 379 501 q 340 392 379 439 q 379 282 379 344 l 379 118 q 348 38 379 72 q 272 0 317 4 q 260 -1 265 -1 l 178 -1 l 35 -1 l 35 972 l 178 972 l 260 972 m 236 144 l 236 300 q 228 320 236 311 q 207 329 219 329 l 207 329 l 178 329 l 178 125 l 217 125 q 231 131 225 125 q 236 144 236 136 m 236 483 l 236 826 q 231 841 236 835 q 217 847 225 847 l 178 847 l 178 454 l 207 454 q 228 463 219 454 q 236 483 236 471 z "},"c":{"ha":400,"x_min":29,"x_max":374,"o":"m 80 927 q 105 952 80 927 q 201 978 131 978 q 323 927 272 978 q 374 806 374 876 l 374 454 l 231 454 l 231 824 q 222 844 231 835 q 201 853 214 853 q 181 844 189 853 q 172 824 172 835 l 172 149 q 181 128 172 136 q 201 119 189 119 q 222 128 214 119 q 231 149 231 136 l 231 329 l 374 329 l 374 175 q 320 47 374 100 q 192 -6 267 -6 q 77 42 125 -6 q 29 157 29 90 l 29 806 q 80 927 29 876 z "},"d":{"ha":411,"x_min":35,"x_max":379,"o":"m 260 972 q 344 937 308 972 q 379 853 379 901 l 379 119 q 344 35 379 69 q 260 0 308 0 l 35 0 l 35 972 l 260 972 m 236 144 l 236 826 q 231 841 236 835 q 217 847 225 847 l 178 847 l 178 125 l 217 125 q 231 131 225 125 q 236 144 236 136 z "},"e":{"ha":381,"x_min":35,"x_max":382,"o":"m 178 331 l 178 125 l 381 125 l 381 0 l 35 0 l 35 972 l 368 972 l 368 847 l 178 847 l 178 454 l 283 454 l 283 331 l 178 331 z "},"f":{"ha":360,"x_min":35,"x_max":369,"o":"m 283 331 l 178 331 l 178 0 l 35 0 l 35 972 l 368 972 l 368 847 l 178 847 l 178 454 l 283 454 l 283 331 z "},"g":{"ha":401,"x_min":29,"x_max":374,"o":"m 80 927 q 105 952 80 927 q 201 978 131 978 q 323 927 272 978 q 374 806 374 876 l 374 535 l 231 535 l 231 824 q 222 844 231 835 q 201 853 214 853 q 181 844 189 853 q 172 824 172 835 l 172 149 q 181 128 172 136 q 201 119 189 119 q 222 128 214 119 q 231 149 231 136 l 231 332 l 190 332 l 190 456 l 374 456 l 374 167 q 323 45 374 96 q 201 -6 272 -6 q 80 45 131 -6 q 29 167 29 96 l 29 806 q 80 927 29 876 z "},"h":{"ha":414,"x_min":35,"x_max":379,"o":"m 236 454 l 236 972 l 379 972 l 379 0 l 236 0 l 236 331 l 178 331 l 178 0 l 35 0 l 35 972 l 178 972 l 178 454 l 236 454 z "},"i":{"ha":213,"x_min":35,"x_max":178,"o":"m 178 0 l 35 0 l 35 972 l 178 972 l 178 0 z "},"j":{"ha":372,"x_min":-6,"x_max":340,"o":"m 197 139 l 197 972 l 340 972 l 340 157 q 292 42 340 90 q 178 -6 244 -6 l 158 -6 q 44 42 92 -6 q -4 157 -4 90 l -4 329 l 139 329 l 139 139 q 144 125 139 131 q 158 119 150 119 l 178 119 q 192 125 186 119 q 197 139 197 131 z "},"k":{"ha":413,"x_min":33,"x_max":379,"o":"m 236 483 l 236 972 l 379 972 l 379 501 q 340 392 379 439 q 379 282 379 344 l 379 0 l 236 0 l 236 300 q 228 320 236 311 q 207 329 219 329 l 207 329 l 178 329 l 178 0 l 35 0 l 35 972 l 178 972 l 178 454 l 207 454 q 228 463 219 454 q 236 483 236 471 z "},"l":{"ha":319,"x_min":35,"x_max":332,"o":"m 178 972 l 178 125 l 331 125 l 331 0 l 35 0 l 35 972 l 178 972 z "},"m":{"ha":564,"x_min":33,"x_max":529,"o":"m 282 438 l 369 972 l 529 972 l 529 0 l 386 0 l 386 464 l 310 0 l 254 0 l 178 464 l 178 0 l 35 0 l 35 972 l 194 972 l 282 438 z "},"n":{"ha":483,"x_min":35,"x_max":449,"o":"m 306 453 l 306 972 l 447 972 l 447 0 l 307 0 l 178 519 l 178 0 l 35 0 l 35 972 l 182 972 l 306 453 z "},"o":{"ha":403,"x_min":29,"x_max":374,"o":"m 80 927 q 105 952 80 927 q 201 978 131 978 q 323 927 272 978 q 374 806 374 876 l 374 167 q 323 45 374 96 q 201 -6 272 -6 q 80 45 131 -6 q 29 167 29 96 l 29 806 q 80 927 29 876 m 231 149 l 231 824 q 222 844 231 835 q 201 853 214 853 q 181 844 189 853 q 172 824 172 835 l 172 149 q 181 128 172 138 q 201 119 189 119 q 222 128 214 119 q 231 149 231 138 z "},"p":{"ha":393,"x_min":35,"x_max":379,"o":"m 260 972 q 344 937 308 972 q 379 853 379 901 l 379 439 q 344 355 379 390 q 260 319 308 319 l 178 319 l 178 0 l 35 0 l 35 972 l 260 972 m 236 465 l 236 826 q 231 841 236 835 q 217 847 225 847 l 178 847 l 178 446 l 217 446 q 231 451 225 446 q 236 465 236 457 z "},"q":{"ha":404,"x_min":29,"x_max":374,"o":"m 80 927 q 105 952 80 927 q 201 978 131 978 q 323 927 272 978 q 374 806 374 876 l 374 167 q 335 57 374 106 q 374 -53 374 10 l 374 -147 l 231 -147 l 231 -35 q 222 -14 231 -22 q 201 -6 214 -6 q 199 -6 200 -6 q 79 46 129 -4 q 29 167 29 96 l 29 806 q 80 927 29 876 m 172 149 q 181 128 172 138 q 201 119 189 119 q 222 128 214 119 q 231 149 231 138 l 231 824 q 222 844 231 835 q 201 853 214 853 q 181 844 189 853 q 172 824 172 835 l 172 149 z "},"r":{"ha":411,"x_min":35,"x_max":379,"o":"m 260 972 q 344 937 308 972 q 379 853 379 901 l 379 501 q 340 392 379 439 q 379 282 379 344 l 379 0 l 236 0 l 236 300 q 228 320 236 311 q 207 329 219 329 l 207 329 l 178 329 l 178 0 l 35 0 l 35 972 l 178 972 l 260 972 m 236 483 l 236 826 q 231 841 236 835 q 217 847 225 847 l 178 847 l 178 454 l 207 454 q 228 463 219 454 q 236 483 236 471 z "},"s":{"ha":394,"x_min":25,"x_max":371,"o":"m 77 927 q 102 952 77 927 q 199 978 128 978 q 320 927 269 978 q 371 806 371 876 l 371 544 q 361 535 371 535 l 238 535 q 228 544 228 535 l 228 824 q 219 844 228 835 q 199 853 211 853 q 178 844 186 853 q 169 824 169 835 l 169 560 q 206 485 169 514 l 228 469 l 293 419 q 371 263 371 360 l 371 167 q 320 45 371 96 q 199 -6 269 -6 q 77 45 128 -6 q 26 167 26 96 l 26 319 q 36 329 26 329 l 160 329 q 169 319 169 329 l 169 149 q 178 128 169 138 q 199 119 186 119 q 219 128 211 119 q 228 149 228 138 l 228 251 q 192 326 228 299 l 169 343 l 100 396 q 26 546 26 453 l 26 806 q 77 927 26 876 z "},"t":{"ha":389,"x_min":-12,"x_max":400,"o":"m -11 849 l -11 972 l 399 972 l 399 849 l 265 849 l 265 0 l 122 0 l 122 849 l -11 849 z "},"u":{"ha":408,"x_min":31,"x_max":376,"o":"m 233 149 l 233 972 l 376 972 l 376 167 q 326 45 376 96 q 204 -6 275 -6 q 83 45 133 -6 q 32 167 32 96 l 32 972 l 175 972 l 175 149 q 183 128 175 138 q 204 119 192 119 q 225 128 217 119 q 233 149 233 138 z "},"v":{"ha":388,"x_min":3,"x_max":385,"o":"m 240 972 l 385 972 l 265 0 l 121 0 l 122 0 l 3 972 l 147 972 l 193 336 l 240 972 z "},"w":{"ha":535,"x_min":7,"x_max":528,"o":"m 382 972 l 526 972 l 431 0 l 300 0 l 265 426 l 228 0 l 99 0 l 7 972 l 151 972 l 171 394 l 219 972 l 315 972 l 358 394 l 382 972 z "},"x":{"ha":411,"x_min":32,"x_max":378,"o":"m 235 483 l 235 972 l 378 972 l 378 501 q 339 392 378 439 q 378 282 378 343 l 378 0 l 235 0 l 235 300 q 226 320 235 311 q 206 329 218 329 l 206 329 q 185 320 193 329 q 176 300 176 311 l 176 0 l 33 0 l 33 282 q 72 392 33 343 q 33 501 33 439 l 33 972 l 176 972 l 176 483 q 185 463 176 471 q 206 454 193 454 l 206 454 q 226 463 218 454 q 235 483 235 471 z "},"y":{"ha":375,"x_min":14,"x_max":360,"o":"m 217 483 l 217 972 l 360 972 l 360 501 q 332 408 360 450 q 258 344 304 365 l 258 0 l 115 0 l 115 344 q 43 408 71 365 q 15 501 15 450 l 15 972 l 158 972 l 158 483 q 167 463 158 471 q 188 454 175 454 q 208 463 200 454 q 217 483 217 471 z "},"z":{"ha":351,"x_min":3,"x_max":343,"o":"m 46 972 l 342 972 l 342 847 l 154 125 l 342 125 l 342 0 l 3 0 l 3 125 l 190 847 l 46 847 l 46 972 z "},"{":{"ha":372,"x_min":22,"x_max":303,"o":"m 196 958 l 196 589 q 171 514 196 547 q 196 449 196 486 l 196 74 q 206 50 196 60 q 232 40 217 40 l 301 40 l 301 -53 l 217 -53 q 117 -15 158 -53 q 76 78 76 24 l 76 447 q 67 458 76 456 q 56 458 60 458 l 24 458 l 24 551 l 49 551 q 76 585 76 558 l 76 960 q 109 1033 76 1003 q 188 1063 142 1063 l 301 1063 l 301 971 l 210 971 q 196 958 196 971 z "},"|":{"ha":189,"x_min":35,"x_max":154,"o":"m 154 -58 l 35 -58 l 35 1068 l 154 1068 l 154 -58 z "},"}":{"ha":372,"x_min":69,"x_max":349,"o":"m 315 551 l 347 551 l 347 458 l 322 458 q 294 426 294 451 l 294 50 q 262 -23 294 7 q 183 -53 229 -53 l 69 -53 l 69 40 l 161 40 q 175 53 175 40 l 175 422 q 200 496 175 463 q 175 561 175 525 l 175 938 q 165 961 175 951 q 139 971 154 971 l 69 971 l 69 1063 l 154 1063 q 253 1024 213 1063 q 294 933 294 986 l 294 564 q 304 551 294 554 q 315 551 311 551 z "},"~":{"ha":401,"x_min":19,"x_max":383,"o":"m 278 501 l 383 501 l 383 486 q 381 461 383 472 q 372 438 379 449 q 340 401 363 418 q 269 385 315 385 q 225 389 246 385 q 188 397 206 393 q 156 406 172 401 q 129 408 143 408 q 128 406 129 407 q 126 400 126 404 l 126 385 l 19 385 l 19 400 q 25 438 19 419 q 43 469 31 456 q 78 493 57 485 q 128 501 99 501 q 171 497 153 501 q 204 488 188 493 q 235 481 218 483 q 269 478 249 478 q 272 479 271 478 l 272 481 l 274 482 q 275 488 275 483 l 278 501 z "}," ":{"ha":244,"x_min":0,"x_max":0,"o":""},"¡":{"ha":224,"x_min":28,"x_max":194,"o":"m 171 885 l 51 885 l 51 1001 l 171 1001 l 171 885 m 149 861 l 194 25 l 29 25 l 75 861 l 149 861 z "},"¢":{"ha":324,"x_min":32,"x_max":290,"o":"m 290 356 l 171 356 l 171 793 q 168 796 169 794 q 164 799 165 799 q 153 796 157 799 l 153 85 q 163 82 157 82 q 168 85 165 82 q 171 86 169 86 l 171 289 l 290 289 l 290 81 q 279 49 289 64 q 256 24 271 35 q 222 6 240 14 q 197 -1 210 1 l 197 -78 l 126 -78 l 126 -1 q 100 6 113 1 q 67 24 82 13 q 43 50 53 35 q 33 82 33 65 l 33 796 q 43 828 33 813 q 67 854 53 843 q 100 872 81 865 q 126 879 113 876 l 126 961 l 197 961 l 197 879 q 222 872 210 876 q 256 854 240 865 q 279 829 269 844 q 290 797 289 815 l 290 356 z "},"£":{"ha":407,"x_min":17,"x_max":379,"o":"m 379 729 l 260 729 l 260 919 q 257 924 260 921 q 243 926 250 926 q 229 924 233 926 q 226 919 226 922 l 226 567 l 378 567 l 378 479 l 226 479 l 226 232 q 215 153 226 185 q 190 103 204 122 q 183 94 188 99 l 378 94 l 378 7 l 17 7 l 17 88 l 25 92 q 47 106 36 99 q 67 121 57 113 l 67 122 q 94 164 82 138 q 107 231 107 189 l 107 479 l 29 479 l 29 567 l 107 567 l 107 919 q 119 958 107 939 q 150 988 132 975 q 192 1007 168 1000 q 242 1014 215 1014 q 294 1007 269 1014 q 338 988 318 1000 q 367 957 356 974 q 379 918 379 939 l 379 729 z "},"¥":{"ha":378,"x_min":32,"x_max":346,"o":"m 346 281 l 250 281 l 250 257 l 346 257 l 346 157 l 250 157 l 250 -3 l 126 -3 l 126 157 l 32 157 l 32 257 l 126 257 l 126 281 l 32 281 l 32 381 l 96 381 q 40 521 40 435 l 40 1014 l 164 1014 l 164 503 q 171 481 164 490 q 188 472 178 472 q 206 481 199 472 q 214 503 214 490 l 214 1014 l 338 1014 l 338 521 q 281 381 338 435 l 346 381 l 346 281 z "},"§":{"ha":339,"x_min":31,"x_max":308,"o":"m 246 321 q 276 258 263 293 q 299 183 290 224 q 307 92 307 142 q 293 50 307 68 q 261 22 281 33 q 219 7 243 13 q 175 1 197 1 q 129 6 151 1 q 88 22 106 11 q 56 49 68 32 q 42 89 42 67 l 42 267 l 143 267 q 111 318 128 294 q 74 381 90 349 q 43 450 54 414 q 31 533 31 488 q 40 604 31 576 q 67 651 51 633 q 103 679 83 669 q 117 685 110 683 q 93 719 106 703 q 63 778 76 746 q 40 849 49 810 q 31 939 31 888 q 44 979 31 961 q 78 1007 58 996 q 121 1024 97 1018 q 167 1029 143 1029 q 213 1024 189 1029 q 254 1008 235 1018 q 285 981 274 997 q 299 940 299 964 l 299 771 l 200 771 q 229 719 214 743 q 267 660 249 690 q 296 593 283 629 q 307 511 307 557 q 297 441 307 469 q 272 393 288 413 q 238 365 257 375 q 224 358 231 361 q 246 321 235 340 m 158 940 q 158 939 158 940 q 168 849 158 888 q 179 817 174 832 l 179 939 l 179 939 q 178 940 178 940 q 167 943 174 943 q 158 940 161 943 m 186 90 q 188 93 188 92 q 176 183 188 144 q 161 226 169 206 l 161 93 q 163 90 161 92 q 175 88 167 88 q 186 90 182 88 m 190 465 q 194 506 194 481 q 186 568 194 540 q 168 610 179 589 q 164 603 167 607 q 154 579 158 594 q 150 539 150 564 q 157 476 150 503 q 174 435 163 456 q 181 443 178 438 q 190 465 186 451 z "},"©":{"ha":740,"x_min":24,"x_max":717,"o":"m 667 810 q 679 788 667 810 q 703 714 690 765 q 715 607 715 663 q 703 499 715 550 q 668 402 690 447 q 614 320 646 357 q 543 257 582 283 q 460 216 504 231 q 369 201 417 201 q 278 216 322 201 q 195 257 233 231 q 126 320 157 283 q 72 402 94 357 q 36 499 49 447 q 24 607 24 550 q 36 714 24 663 q 72 810 49 765 q 126 891 94 854 q 195 953 157 928 q 278 994 233 979 q 369 1008 322 1008 q 460 994 417 1008 q 543 953 504 979 q 613 891 582 928 q 667 810 644 854 m 597 449 q 606 466 597 449 q 624 523 614 483 q 633 604 633 563 q 624 687 633 647 q 597 761 614 726 q 556 824 581 796 q 503 872 532 851 q 440 904 474 893 q 369 915 406 915 q 298 904 332 915 q 235 872 264 893 q 182 824 206 851 q 142 761 158 796 q 116 687 125 726 q 107 604 107 647 q 126 485 107 540 q 183 385 147 428 q 266 319 218 343 q 369 294 314 294 q 440 306 406 294 q 503 337 474 317 q 556 385 532 357 q 597 449 581 414 m 399 878 q 428 860 415 871 q 450 833 442 849 q 460 797 460 817 l 460 599 l 376 599 l 376 790 q 374 793 375 792 q 369 796 372 794 q 367 796 368 796 q 357 793 361 796 q 356 792 356 793 l 356 417 q 357 415 356 415 q 367 413 361 413 q 375 415 371 413 q 376 417 376 417 l 376 532 l 460 532 l 460 411 q 450 375 460 392 q 428 349 442 360 q 399 331 415 338 q 367 325 383 325 q 332 331 349 325 q 303 349 315 338 q 282 375 290 361 q 272 411 272 392 l 272 796 q 282 832 272 815 q 303 860 290 849 q 332 876 315 871 q 399 878 365 890 z "},"ª":{"ha":213,"x_min":28,"x_max":185,"o":"m 185 539 l 28 539 l 28 582 l 185 582 l 185 539 m 93 679 l 93 604 l 29 604 l 29 961 q 52 1016 29 993 q 106 1039 75 1039 q 160 1016 138 1039 q 183 961 183 993 l 183 604 l 119 604 l 119 679 l 93 679 m 93 961 l 93 735 l 119 735 l 119 961 q 106 975 119 975 q 93 961 93 975 z "},"«":{"ha":494,"x_min":68,"x_max":467,"o":"m 456 879 l 456 663 l 358 506 l 456 360 l 467 128 l 233 513 l 456 879 m 199 504 l 297 358 l 297 131 l 69 504 l 297 879 l 297 663 l 199 504 z "},"­":{"ha":0,"x_min":0,"x_max":0,"o":""},"®":{"ha":747,"x_min":24,"x_max":724,"o":"m 675 810 q 687 788 675 810 q 711 714 699 765 q 724 607 724 663 q 711 499 724 551 q 675 402 699 447 q 619 320 651 357 q 549 257 588 283 q 465 216 510 231 q 373 201 421 201 q 281 216 325 201 q 197 257 236 231 q 126 320 158 283 q 72 402 94 357 q 36 499 49 447 q 24 607 24 551 q 36 714 24 663 q 72 810 49 765 q 126 892 94 856 q 197 953 158 928 q 281 994 236 979 q 373 1008 325 1008 q 465 994 421 1008 q 549 953 510 979 q 619 892 588 928 q 675 810 651 856 m 605 449 q 614 466 605 449 q 631 523 622 483 q 640 604 640 563 q 631 687 640 647 q 605 761 622 726 q 563 824 588 796 q 509 872 539 851 q 445 904 479 893 q 374 915 411 915 q 301 904 335 915 q 237 872 267 893 q 183 824 207 851 q 142 761 160 796 q 116 687 125 726 q 107 604 107 647 q 126 485 107 540 q 183 385 147 428 q 268 319 219 343 q 374 294 317 294 q 445 306 411 294 q 509 337 479 317 q 563 385 539 357 q 605 449 588 414 m 403 881 q 451 861 432 881 q 471 813 471 842 l 471 613 q 449 551 471 578 q 471 489 471 524 l 471 328 l 390 328 l 390 499 q 385 510 390 506 q 374 515 381 515 l 374 515 l 357 515 l 357 328 l 275 328 l 275 882 l 357 882 l 357 881 l 403 881 m 390 603 l 390 799 q 379 810 390 810 l 357 810 l 357 586 l 374 586 q 385 591 381 586 q 390 603 390 596 z "},"°":{"ha":269,"x_min":19,"x_max":249,"o":"m 215 972 q 247 906 247 946 q 239 868 247 886 q 214 840 229 851 q 178 821 199 828 q 133 814 158 814 q 90 821 111 814 q 54 840 69 828 q 31 868 39 851 q 21 906 21 886 q 31 942 21 925 q 54 972 39 960 q 90 990 69 983 q 133 997 111 997 q 215 972 183 997 m 156 893 q 163 906 163 899 q 156 919 163 914 q 133 925 147 925 q 114 919 121 925 q 107 906 107 914 q 114 893 107 899 q 133 886 121 886 q 156 893 147 886 z "},"²":{"ha":256,"x_min":26,"x_max":229,"o":"m 115 403 l 115 389 l 228 389 l 228 307 l 28 307 l 28 403 q 42 490 28 447 l 126 754 q 140 842 140 797 l 140 950 q 135 974 140 967 q 128 978 131 978 q 121 974 125 978 q 115 950 115 967 l 115 796 l 28 796 l 28 950 q 36 989 28 972 q 59 1017 44 1006 q 92 1033 74 1028 q 128 1039 110 1039 q 164 1033 146 1039 q 197 1017 182 1028 q 219 989 211 1006 q 228 950 228 972 l 228 840 q 214 754 228 796 l 129 490 q 115 403 115 447 z "},"³":{"ha":261,"x_min":28,"x_max":231,"o":"m 229 718 q 222 700 228 710 q 204 682 217 690 q 200 679 203 681 q 204 676 203 678 q 222 659 217 668 q 229 640 228 650 q 229 628 229 633 l 229 382 q 221 344 229 361 q 198 317 213 328 q 165 300 183 306 q 129 294 147 294 q 93 300 111 294 q 60 317 75 306 q 38 344 46 328 q 29 382 29 361 l 29 538 l 117 538 l 117 382 q 122 360 117 367 q 129 354 126 354 q 136 360 132 354 q 142 382 142 367 l 142 628 q 140 638 142 635 q 138 640 139 640 q 132 642 135 642 q 121 643 126 643 l 78 643 l 78 717 l 121 717 q 132 717 126 717 q 138 718 135 717 q 140 721 139 718 q 142 732 142 724 l 142 950 q 136 974 142 967 q 129 978 132 978 q 122 974 126 978 q 117 950 117 967 l 117 796 l 29 796 l 29 950 q 38 989 29 972 q 60 1017 46 1006 q 93 1033 75 1028 q 165 1033 129 1044 q 198 1017 183 1028 q 221 989 213 1006 q 229 950 229 972 l 229 731 q 229 718 229 725 z "},"·":{"ha":200,"x_min":21,"x_max":179,"o":"m 178 433 l 21 433 l 21 564 l 178 564 l 178 433 z "},"¹":{"ha":190,"x_min":21,"x_max":158,"o":"m 69 1026 l 157 1026 l 157 307 l 69 307 l 69 944 l 21 929 l 21 1001 l 69 1026 z "},"º":{"ha":264,"x_min":31,"x_max":232,"o":"m 199 1011 q 207 1006 199 1011 q 222 983 214 1000 q 231 946 231 967 l 231 382 q 222 343 231 360 q 199 316 214 326 q 167 300 185 306 q 131 294 150 294 q 96 300 113 294 q 63 316 78 306 q 40 343 49 326 q 32 382 32 360 l 32 946 q 40 983 32 967 q 64 1011 49 1000 q 96 1028 78 1022 q 167 1028 132 1039 q 199 1011 185 1022 m 143 381 l 143 947 q 139 961 143 957 q 131 965 135 965 q 124 961 128 965 q 119 947 119 957 l 119 381 q 124 366 119 369 q 131 363 128 363 q 139 366 135 363 q 143 381 143 369 z "},"»":{"ha":494,"x_min":28,"x_max":425,"o":"m 197 878 l 425 504 l 197 131 l 197 360 l 294 504 l 197 663 l 197 878 m 28 128 l 39 360 l 136 506 l 39 663 l 39 878 l 261 513 l 28 128 z "},"¿":{"ha":325,"x_min":25,"x_max":299,"o":"m 178 399 l 297 399 l 297 139 q 285 87 297 110 q 254 49 274 64 q 210 26 235 33 q 161 19 186 19 q 113 26 136 19 q 68 49 88 33 q 37 87 49 64 q 25 139 25 110 l 25 261 q 31 343 25 308 q 44 401 36 376 l 100 585 q 111 653 108 613 q 113 753 113 694 l 113 872 l 232 872 l 232 700 q 225 600 232 640 q 207 529 218 560 l 167 419 q 151 355 157 392 q 144 263 144 318 l 144 139 q 151 113 144 121 q 163 106 157 106 q 171 113 165 106 q 178 139 178 119 l 178 399 m 232 914 l 113 914 l 113 1013 l 232 1013 l 232 914 z "},"À":{"ha":410,"x_min":14,"x_max":378,"o":"m 83 921 q 108 946 83 921 q 204 971 133 971 q 326 921 275 971 q 376 799 376 871 l 376 0 l 233 0 l 233 167 l 175 167 l 175 0 l 32 0 l 32 799 q 83 921 32 871 m 175 290 l 233 290 l 233 799 q 225 820 233 811 q 204 829 217 829 q 183 820 192 829 q 175 799 175 811 l 175 290 m 249 1010 l 158 1010 l 14 1129 l 171 1129 l 249 1010 z "},"Á":{"ha":408,"x_min":32,"x_max":410,"o":"m 83 921 q 108 946 83 921 q 204 971 133 971 q 326 921 275 971 q 376 799 376 871 l 376 0 l 233 0 l 233 167 l 175 167 l 175 0 l 32 0 l 32 799 q 83 921 32 871 m 175 290 l 233 290 l 233 799 q 225 820 233 811 q 204 829 217 829 q 183 820 192 829 q 175 799 175 811 l 175 290 m 410 1129 l 264 1010 l 175 1010 l 253 1129 l 410 1129 z "},"Â":{"ha":408,"x_min":32,"x_max":376,"o":"m 83 921 q 108 946 83 921 q 204 971 133 971 q 326 921 275 971 q 376 799 376 871 l 376 0 l 233 0 l 233 167 l 175 167 l 175 0 l 32 0 l 32 799 q 83 921 32 871 m 175 290 l 233 290 l 233 799 q 225 820 233 811 q 204 829 217 829 q 183 820 192 829 q 175 799 175 811 l 175 290 m 208 1068 l 156 1010 l 32 1010 l 146 1135 l 269 1135 l 376 1010 l 257 1010 l 208 1068 z "},"Ã":{"ha":408,"x_min":32,"x_max":376,"o":"m 83 921 q 108 946 83 921 q 204 971 133 971 q 326 921 275 971 q 376 799 376 871 l 376 0 l 233 0 l 233 167 l 175 167 l 175 0 l 32 0 l 32 799 q 83 921 32 871 m 233 290 l 233 799 q 225 820 233 811 q 204 829 217 829 q 183 820 192 829 q 175 799 175 811 l 175 290 l 233 290 m 157 1054 q 117 1010 132 1054 l 64 1057 q 146 1142 100 1142 q 199 1128 169 1142 l 219 1117 q 254 1104 244 1104 q 292 1144 282 1104 l 344 1093 q 307 1031 329 1049 q 268 1014 285 1014 q 217 1028 244 1014 l 192 1042 q 157 1054 168 1054 z "},"Ä":{"ha":408,"x_min":32,"x_max":376,"o":"m 83 921 q 108 946 83 921 q 204 971 133 971 q 326 921 275 971 q 376 799 376 871 l 376 0 l 233 0 l 233 167 l 175 167 l 175 0 l 32 0 l 32 799 q 83 921 32 871 m 233 290 l 233 799 q 225 820 233 811 q 204 829 217 829 q 183 820 192 829 q 175 799 175 811 l 175 290 l 233 290 m 165 1010 l 50 1010 l 50 1125 l 165 1125 l 165 1010 m 358 1010 l 243 1010 l 243 1125 l 358 1125 l 358 1010 z "},"Å":{"ha":408,"x_min":32,"x_max":376,"o":"m 83 921 q 108 946 83 921 q 204 971 133 971 q 326 921 275 971 q 376 799 376 871 l 376 0 l 233 0 l 233 167 l 175 167 l 175 0 l 32 0 l 32 799 q 83 921 32 871 m 233 290 l 233 799 q 225 820 233 811 q 204 829 217 829 q 183 820 192 829 q 175 799 175 811 l 175 290 l 233 290 m 204 971 q 138 998 165 971 q 111 1064 111 1025 q 138 1130 111 1103 q 204 1157 165 1157 q 269 1131 242 1157 q 297 1064 297 1104 q 269 998 297 1025 q 204 971 242 971 m 203 1099 q 178 1088 189 1099 q 167 1063 167 1078 q 178 1037 167 1047 q 203 1026 189 1026 q 229 1037 218 1026 q 240 1063 240 1047 q 229 1088 240 1078 q 203 1099 218 1099 z "},"Æ":{"ha":579,"x_min":32,"x_max":581,"o":"m 579 126 l 579 1 l 376 1 l 376 0 l 233 0 l 233 167 l 175 167 l 175 0 l 32 0 l 32 799 q 83 921 32 871 q 204 971 133 971 q 233 969 218 971 l 233 974 l 567 974 l 567 849 l 376 849 l 376 800 l 376 456 l 482 456 l 482 332 l 376 332 l 376 126 l 579 126 m 175 290 l 233 290 l 233 799 q 225 820 233 811 q 204 829 217 829 q 183 820 192 829 q 175 799 175 811 l 175 290 z "},"Ç":{"ha":400,"x_min":29,"x_max":374,"o":"m 374 456 l 231 456 l 231 824 q 222 844 231 836 q 201 853 214 853 q 181 844 189 853 q 172 824 172 836 l 172 150 q 181 129 172 138 q 201 121 189 121 q 222 129 214 121 q 231 150 231 138 l 231 331 l 374 331 l 374 176 q 330 59 374 110 q 219 -3 286 8 l 219 -10 q 251 -21 238 -10 q 265 -50 265 -32 q 246 -91 265 -74 q 200 -108 226 -108 q 138 -60 151 -108 l 183 -60 q 199 -72 188 -72 q 213 -67 208 -72 q 218 -54 218 -62 q 211 -38 218 -43 q 192 -33 204 -33 l 183 -33 l 183 -4 q 74 46 119 -1 q 29 158 29 93 l 29 807 q 80 928 29 878 q 201 979 131 979 q 323 928 272 979 q 374 807 374 878 l 374 456 z "},"È":{"ha":381,"x_min":35,"x_max":382,"o":"m 178 126 l 381 126 l 381 1 l 35 1 l 35 974 l 368 974 l 368 849 l 178 849 l 178 456 l 283 456 l 283 332 l 178 332 l 178 126 m 269 1010 l 179 1010 l 35 1129 l 192 1129 l 269 1010 z "},"É":{"ha":381,"x_min":35,"x_max":431,"o":"m 178 332 l 178 126 l 381 126 l 381 1 l 35 1 l 35 974 l 368 974 l 368 849 l 178 849 l 178 456 l 283 456 l 283 332 l 178 332 m 431 1129 l 285 1010 l 196 1010 l 274 1129 l 431 1129 z "},"Ê":{"ha":381,"x_min":35,"x_max":382,"o":"m 178 126 l 381 126 l 381 1 l 35 1 l 35 974 l 368 974 l 368 849 l 178 849 l 178 456 l 283 456 l 283 332 l 178 332 l 178 126 m 211 1068 l 158 1010 l 36 1010 l 149 1135 l 274 1135 l 381 1010 l 261 1010 l 211 1068 z "},"Ë":{"ha":381,"x_min":35,"x_max":382,"o":"m 178 126 l 381 126 l 381 1 l 35 1 l 35 974 l 368 974 l 368 849 l 178 849 l 178 456 l 283 456 l 283 332 l 178 332 l 178 126 m 169 1010 l 54 1010 l 54 1125 l 169 1125 l 169 1010 m 361 1010 l 247 1010 l 247 1125 l 361 1125 l 361 1010 z "},"Ì":{"ha":213,"x_min":-94,"x_max":178,"o":"m 178 1 l 35 1 l 35 974 l 178 974 l 178 1 m 142 1010 l 51 1010 l -93 1129 l 64 1129 l 142 1010 z "},"Í":{"ha":213,"x_min":35,"x_max":288,"o":"m 178 1 l 35 1 l 35 974 l 178 974 l 178 1 m 286 1129 l 142 1010 l 51 1010 l 129 1129 l 286 1129 z "},"Î":{"ha":211,"x_min":-68,"x_max":278,"o":"m 176 1 l 35 1 l 35 974 l 176 974 l 176 1 m 110 1068 l 57 1010 l -67 1010 l 47 1135 l 171 1135 l 278 1010 l 158 1010 l 110 1068 z "},"Ï":{"ha":211,"x_min":-49,"x_max":260,"o":"m 176 1 l 33 1 l 33 974 l 176 974 l 176 1 m 67 1010 l -49 1010 l -49 1125 l 67 1125 l 67 1010 m 260 1010 l 144 1010 l 144 1125 l 260 1125 l 260 1010 z "},"Ñ":{"ha":482,"x_min":35,"x_max":449,"o":"m 306 974 l 447 974 l 447 1 l 307 1 l 178 521 l 178 1 l 35 1 l 35 974 l 182 974 l 306 454 l 306 974 m 194 1054 q 153 1010 169 1054 l 100 1057 q 183 1142 138 1142 q 236 1128 207 1142 l 256 1117 q 292 1104 282 1104 q 328 1144 319 1104 l 382 1093 q 344 1031 367 1049 q 306 1014 322 1014 q 254 1028 282 1014 l 229 1042 q 194 1054 206 1054 z "},"Ò":{"ha":404,"x_min":11,"x_max":375,"o":"m 80 928 q 105 954 80 928 q 201 979 131 979 q 323 928 272 979 q 374 807 374 878 l 374 168 q 323 47 374 97 q 201 -4 272 -4 q 80 47 131 -4 q 29 168 29 97 l 29 807 q 80 928 29 878 m 231 150 l 231 824 q 222 844 231 836 q 201 853 214 853 q 181 844 189 853 q 172 824 172 836 l 172 150 q 181 130 172 139 q 201 121 189 121 q 222 130 214 121 q 231 150 231 139 m 246 1010 l 156 1010 l 11 1129 l 168 1129 l 246 1010 z "},"Ó":{"ha":403,"x_min":29,"x_max":407,"o":"m 80 928 q 105 954 80 928 q 201 979 131 979 q 323 928 272 979 q 374 807 374 878 l 374 168 q 323 47 374 97 q 201 -4 272 -4 q 80 47 131 -4 q 29 168 29 97 l 29 807 q 80 928 29 878 m 231 150 l 231 824 q 222 844 231 836 q 201 853 214 853 q 181 844 189 853 q 172 824 172 836 l 172 150 q 181 130 172 139 q 201 121 189 121 q 222 130 214 121 q 231 150 231 139 m 407 1129 l 261 1010 l 172 1010 l 250 1129 l 407 1129 z "},"Ô":{"ha":403,"x_min":29,"x_max":374,"o":"m 80 928 q 105 954 80 928 q 201 979 131 979 q 323 928 272 979 q 374 807 374 878 l 374 168 q 323 47 374 97 q 201 -4 272 -4 q 80 47 131 -4 q 29 168 29 97 l 29 807 q 80 928 29 878 m 231 150 l 231 824 q 222 844 231 836 q 201 853 214 853 q 181 844 189 853 q 172 824 172 836 l 172 150 q 181 130 172 139 q 201 121 189 121 q 222 130 214 121 q 231 150 231 139 m 206 1068 l 153 1010 l 29 1010 l 143 1135 l 267 1135 l 374 1010 l 254 1010 l 206 1068 z "},"Õ":{"ha":403,"x_min":29,"x_max":374,"o":"m 80 928 q 105 954 80 928 q 201 979 131 979 q 323 928 272 979 q 374 807 374 878 l 374 168 q 323 47 374 97 q 201 -4 272 -4 q 80 47 131 -4 q 29 168 29 97 l 29 807 q 80 928 29 878 m 231 150 l 231 824 q 222 844 231 836 q 201 853 214 853 q 181 844 189 853 q 172 824 172 836 l 172 150 q 181 130 172 139 q 201 121 189 121 q 222 130 214 121 q 231 150 231 139 m 154 1054 q 114 1010 129 1054 l 61 1057 q 143 1142 97 1142 q 196 1128 167 1142 l 217 1117 q 251 1104 242 1104 q 289 1144 279 1104 l 342 1093 q 304 1031 326 1049 q 265 1014 282 1014 q 214 1028 242 1014 l 189 1042 q 154 1054 165 1054 z "},"Ö":{"ha":403,"x_min":29,"x_max":374,"o":"m 80 928 q 105 954 80 928 q 201 979 131 979 q 323 928 272 979 q 374 807 374 878 l 374 168 q 323 47 374 97 q 201 -4 272 -4 q 80 47 131 -4 q 29 168 29 97 l 29 807 q 80 928 29 878 m 231 150 l 231 824 q 222 844 231 836 q 201 853 214 853 q 181 844 189 853 q 172 824 172 836 l 172 150 q 181 130 172 139 q 201 121 189 121 q 222 130 214 121 q 231 150 231 139 m 163 1010 l 47 1010 l 47 1125 l 163 1125 l 163 1010 m 356 1010 l 240 1010 l 240 1125 l 356 1125 l 356 1010 z "},"×":{"ha":415,"x_min":15,"x_max":401,"o":"m 400 682 l 276 428 l 389 150 l 258 150 l 213 311 l 163 150 l 15 150 l 139 410 l 15 682 l 150 682 l 208 522 l 258 682 l 400 682 z "},"Ø":{"ha":406,"x_min":31,"x_max":375,"o":"m 344 904 q 375 807 375 860 l 375 168 q 324 47 375 97 q 203 -4 274 -4 q 121 17 158 -4 l 111 -22 l 38 -22 l 61 71 q 31 168 31 114 l 31 807 q 81 928 31 878 q 203 979 132 979 q 285 958 247 979 l 294 996 l 368 996 l 344 904 m 174 824 l 174 517 l 232 747 l 232 824 q 224 844 232 836 q 203 853 215 853 q 182 844 190 853 q 174 824 174 836 m 182 130 q 186 125 182 130 q 203 121 190 121 q 224 130 215 121 q 232 150 232 139 l 232 458 l 174 228 l 174 150 q 182 130 174 139 z "},"Ù":{"ha":410,"x_min":21,"x_max":378,"o":"m 233 974 l 376 974 l 376 168 q 326 47 376 97 q 205 -4 276 -4 q 83 47 133 -4 q 32 168 32 97 l 32 974 l 175 974 l 175 150 q 184 130 175 139 q 205 121 193 121 q 225 130 217 121 q 233 150 233 139 l 233 974 m 256 1010 l 165 1010 l 21 1129 l 178 1129 l 256 1010 z "},"Ú":{"ha":408,"x_min":31,"x_max":399,"o":"m 233 150 l 233 974 l 376 974 l 376 168 q 326 47 376 97 q 204 -4 275 -4 q 83 47 133 -4 q 32 168 32 97 l 32 974 l 175 974 l 175 150 q 183 130 175 139 q 204 121 192 121 q 225 130 217 121 q 233 150 233 139 m 399 1129 l 253 1010 l 164 1010 l 242 1129 l 399 1129 z "},"Û":{"ha":408,"x_min":31,"x_max":376,"o":"m 233 150 l 233 974 l 376 974 l 376 168 q 326 47 376 97 q 204 -4 275 -4 q 83 47 133 -4 q 32 168 32 97 l 32 974 l 175 974 l 175 150 q 183 130 175 139 q 204 121 192 121 q 225 130 217 121 q 233 150 233 139 m 208 1068 l 156 1010 l 32 1010 l 146 1135 l 269 1135 l 376 1010 l 257 1010 l 208 1068 z "},"Ü":{"ha":408,"x_min":31,"x_max":376,"o":"m 233 974 l 376 974 l 376 168 q 326 47 376 97 q 204 -4 275 -4 q 83 47 133 -4 q 32 168 32 97 l 32 974 l 175 974 l 175 150 q 183 130 175 139 q 204 121 192 121 q 225 130 217 121 q 233 150 233 139 l 233 974 m 165 1010 l 50 1010 l 50 1125 l 165 1125 l 165 1010 m 358 1010 l 243 1010 l 243 1125 l 358 1125 l 358 1010 z "},"Ý":{"ha":376,"x_min":14,"x_max":394,"o":"m 217 483 l 217 974 l 360 974 l 360 501 q 332 408 360 450 q 258 344 304 365 l 258 0 l 115 0 l 115 344 q 43 408 71 365 q 15 501 15 450 l 15 974 l 158 974 l 158 483 q 167 463 158 471 q 188 454 175 454 q 208 463 200 454 q 217 483 217 471 m 393 1129 l 249 1010 l 158 1010 l 236 1129 l 393 1129 z "},"ß":{"ha":339,"x_min":35,"x_max":307,"o":"m 289 606 q 268 585 281 593 q 289 567 281 576 q 301 542 297 554 q 306 517 306 529 l 306 104 q 294 65 306 83 q 264 35 283 47 q 222 14 246 21 q 169 7 197 7 l 154 7 l 154 -104 l 35 -104 l 35 904 q 47 954 35 933 q 81 989 60 975 q 124 1008 100 1001 q 169 1014 147 1014 q 214 1008 190 1014 q 258 989 238 1003 q 292 956 279 976 q 306 906 306 935 l 306 656 q 289 606 306 632 m 186 104 l 186 526 q 186 531 186 528 q 183 535 185 533 q 181 538 183 536 q 172 539 178 539 l 154 539 l 154 100 q 167 100 161 100 q 183 101 178 100 q 186 101 185 101 q 186 104 186 103 m 186 649 l 186 915 q 183 924 186 921 q 169 926 178 926 q 157 924 160 926 q 154 915 154 921 l 154 631 l 176 631 q 183 632 182 631 q 186 649 186 638 z "},"à":{"ha":410,"x_min":14,"x_max":378,"o":"m 83 921 q 108 946 83 921 q 204 971 133 971 q 326 921 275 971 q 376 799 376 871 l 376 0 l 233 0 l 233 167 l 175 167 l 175 0 l 32 0 l 32 799 q 83 921 32 871 m 175 290 l 233 290 l 233 799 q 225 820 233 811 q 204 829 217 829 q 183 820 192 829 q 175 799 175 811 l 175 290 m 249 1010 l 158 1010 l 14 1129 l 171 1129 l 249 1010 z "},"á":{"ha":408,"x_min":32,"x_max":410,"o":"m 83 921 q 108 946 83 921 q 204 971 133 971 q 326 921 275 971 q 376 799 376 871 l 376 0 l 233 0 l 233 167 l 175 167 l 175 0 l 32 0 l 32 799 q 83 921 32 871 m 175 290 l 233 290 l 233 799 q 225 820 233 811 q 204 829 217 829 q 183 820 192 829 q 175 799 175 811 l 175 290 m 410 1129 l 264 1010 l 175 1010 l 253 1129 l 410 1129 z "},"â":{"ha":408,"x_min":32,"x_max":376,"o":"m 83 921 q 108 946 83 921 q 204 971 133 971 q 326 921 275 971 q 376 799 376 871 l 376 0 l 233 0 l 233 167 l 175 167 l 175 0 l 32 0 l 32 799 q 83 921 32 871 m 175 290 l 233 290 l 233 799 q 225 820 233 811 q 204 829 217 829 q 183 820 192 829 q 175 799 175 811 l 175 290 m 208 1068 l 156 1010 l 32 1010 l 146 1135 l 269 1135 l 376 1010 l 257 1010 l 208 1068 z "},"ã":{"ha":408,"x_min":32,"x_max":376,"o":"m 83 921 q 108 946 83 921 q 204 971 133 971 q 326 921 275 971 q 376 799 376 871 l 376 0 l 233 0 l 233 167 l 175 167 l 175 0 l 32 0 l 32 799 q 83 921 32 871 m 233 290 l 233 799 q 225 820 233 811 q 204 829 217 829 q 183 820 192 829 q 175 799 175 811 l 175 290 l 233 290 m 157 1054 q 117 1010 132 1054 l 64 1057 q 146 1142 100 1142 q 199 1128 169 1142 l 219 1117 q 254 1104 244 1104 q 292 1144 282 1104 l 344 1093 q 307 1031 329 1049 q 268 1014 285 1014 q 217 1028 244 1014 l 192 1042 q 157 1054 168 1054 z "},"ä":{"ha":408,"x_min":32,"x_max":376,"o":"m 83 921 q 108 946 83 921 q 204 971 133 971 q 326 921 275 971 q 376 799 376 871 l 376 0 l 233 0 l 233 167 l 175 167 l 175 0 l 32 0 l 32 799 q 83 921 32 871 m 233 290 l 233 799 q 225 820 233 811 q 204 829 217 829 q 183 820 192 829 q 175 799 175 811 l 175 290 l 233 290 m 165 1010 l 50 1010 l 50 1125 l 165 1125 l 165 1010 m 358 1010 l 243 1010 l 243 1125 l 358 1125 l 358 1010 z "},"å":{"ha":408,"x_min":32,"x_max":376,"o":"m 83 921 q 108 946 83 921 q 204 971 133 971 q 326 921 275 971 q 376 799 376 871 l 376 0 l 233 0 l 233 167 l 175 167 l 175 0 l 32 0 l 32 799 q 83 921 32 871 m 233 290 l 233 799 q 225 820 233 811 q 204 829 217 829 q 183 820 192 829 q 175 799 175 811 l 175 290 l 233 290 m 204 971 q 138 998 165 971 q 111 1064 111 1025 q 138 1130 111 1103 q 204 1157 165 1157 q 269 1131 242 1157 q 297 1064 297 1104 q 269 998 297 1025 q 204 971 242 971 m 203 1099 q 178 1088 189 1099 q 167 1063 167 1078 q 178 1037 167 1047 q 203 1026 189 1026 q 229 1037 218 1026 q 240 1063 240 1047 q 229 1088 240 1078 q 203 1099 218 1099 z "},"æ":{"ha":579,"x_min":32,"x_max":581,"o":"m 579 126 l 579 1 l 376 1 l 376 0 l 233 0 l 233 167 l 175 167 l 175 0 l 32 0 l 32 799 q 83 921 32 871 q 204 971 133 971 q 233 969 218 971 l 233 974 l 567 974 l 567 849 l 376 849 l 376 800 l 376 456 l 482 456 l 482 332 l 376 332 l 376 126 l 579 126 m 175 290 l 233 290 l 233 799 q 225 820 233 811 q 204 829 217 829 q 183 820 192 829 q 175 799 175 811 l 175 290 z "},"ç":{"ha":400,"x_min":29,"x_max":374,"o":"m 374 456 l 231 456 l 231 824 q 222 844 231 836 q 201 853 214 853 q 181 844 189 853 q 172 824 172 836 l 172 150 q 181 129 172 138 q 201 121 189 121 q 222 129 214 121 q 231 150 231 138 l 231 331 l 374 331 l 374 176 q 330 59 374 110 q 219 -3 286 8 l 219 -10 q 251 -21 238 -10 q 265 -50 265 -32 q 246 -91 265 -74 q 200 -108 226 -108 q 138 -60 151 -108 l 183 -60 q 199 -72 188 -72 q 213 -67 208 -72 q 218 -54 218 -62 q 211 -38 218 -43 q 192 -33 204 -33 l 183 -33 l 183 -4 q 74 46 119 -1 q 29 158 29 93 l 29 807 q 80 928 29 878 q 201 979 131 979 q 323 928 272 979 q 374 807 374 878 l 374 456 z "},"è":{"ha":381,"x_min":35,"x_max":382,"o":"m 178 126 l 381 126 l 381 1 l 35 1 l 35 974 l 368 974 l 368 849 l 178 849 l 178 456 l 283 456 l 283 332 l 178 332 l 178 126 m 269 1010 l 179 1010 l 35 1129 l 192 1129 l 269 1010 z "},"é":{"ha":381,"x_min":35,"x_max":431,"o":"m 178 332 l 178 126 l 381 126 l 381 1 l 35 1 l 35 974 l 368 974 l 368 849 l 178 849 l 178 456 l 283 456 l 283 332 l 178 332 m 431 1129 l 285 1010 l 196 1010 l 274 1129 l 431 1129 z "},"ê":{"ha":381,"x_min":35,"x_max":382,"o":"m 178 126 l 381 126 l 381 1 l 35 1 l 35 974 l 368 974 l 368 849 l 178 849 l 178 456 l 283 456 l 283 332 l 178 332 l 178 126 m 211 1068 l 158 1010 l 36 1010 l 149 1135 l 274 1135 l 381 1010 l 261 1010 l 211 1068 z "},"ë":{"ha":381,"x_min":35,"x_max":382,"o":"m 178 126 l 381 126 l 381 1 l 35 1 l 35 974 l 368 974 l 368 849 l 178 849 l 178 456 l 283 456 l 283 332 l 178 332 l 178 126 m 169 1010 l 54 1010 l 54 1125 l 169 1125 l 169 1010 m 361 1010 l 247 1010 l 247 1125 l 361 1125 l 361 1010 z "},"ì":{"ha":213,"x_min":-94,"x_max":178,"o":"m 178 1 l 35 1 l 35 974 l 178 974 l 178 1 m 142 1010 l 51 1010 l -93 1129 l 64 1129 l 142 1010 z "},"í":{"ha":213,"x_min":35,"x_max":288,"o":"m 178 1 l 35 1 l 35 974 l 178 974 l 178 1 m 286 1129 l 142 1010 l 51 1010 l 129 1129 l 286 1129 z "},"î":{"ha":211,"x_min":-68,"x_max":278,"o":"m 176 1 l 35 1 l 35 974 l 176 974 l 176 1 m 110 1068 l 57 1010 l -67 1010 l 47 1135 l 171 1135 l 278 1010 l 158 1010 l 110 1068 z "},"ï":{"ha":211,"x_min":-49,"x_max":260,"o":"m 176 1 l 33 1 l 33 974 l 176 974 l 176 1 m 67 1010 l -49 1010 l -49 1125 l 67 1125 l 67 1010 m 260 1010 l 144 1010 l 144 1125 l 260 1125 l 260 1010 z "},"ñ":{"ha":482,"x_min":35,"x_max":449,"o":"m 306 974 l 447 974 l 447 1 l 307 1 l 178 521 l 178 1 l 35 1 l 35 974 l 182 974 l 306 454 l 306 974 m 194 1054 q 153 1010 169 1054 l 100 1057 q 183 1142 138 1142 q 236 1128 207 1142 l 256 1117 q 292 1104 282 1104 q 328 1144 319 1104 l 382 1093 q 344 1031 367 1049 q 306 1014 322 1014 q 254 1028 282 1014 l 229 1042 q 194 1054 206 1054 z "},"ò":{"ha":404,"x_min":11,"x_max":375,"o":"m 80 928 q 105 954 80 928 q 201 979 131 979 q 323 928 272 979 q 374 807 374 878 l 374 168 q 323 47 374 97 q 201 -4 272 -4 q 80 47 131 -4 q 29 168 29 97 l 29 807 q 80 928 29 878 m 231 150 l 231 824 q 222 844 231 836 q 201 853 214 853 q 181 844 189 853 q 172 824 172 836 l 172 150 q 181 130 172 139 q 201 121 189 121 q 222 130 214 121 q 231 150 231 139 m 246 1010 l 156 1010 l 11 1129 l 168 1129 l 246 1010 z "},"ó":{"ha":403,"x_min":29,"x_max":407,"o":"m 80 928 q 105 954 80 928 q 201 979 131 979 q 323 928 272 979 q 374 807 374 878 l 374 168 q 323 47 374 97 q 201 -4 272 -4 q 80 47 131 -4 q 29 168 29 97 l 29 807 q 80 928 29 878 m 231 150 l 231 824 q 222 844 231 836 q 201 853 214 853 q 181 844 189 853 q 172 824 172 836 l 172 150 q 181 130 172 139 q 201 121 189 121 q 222 130 214 121 q 231 150 231 139 m 407 1129 l 261 1010 l 172 1010 l 250 1129 l 407 1129 z "},"ô":{"ha":403,"x_min":29,"x_max":374,"o":"m 80 928 q 105 954 80 928 q 201 979 131 979 q 323 928 272 979 q 374 807 374 878 l 374 168 q 323 47 374 97 q 201 -4 272 -4 q 80 47 131 -4 q 29 168 29 97 l 29 807 q 80 928 29 878 m 231 150 l 231 824 q 222 844 231 836 q 201 853 214 853 q 181 844 189 853 q 172 824 172 836 l 172 150 q 181 130 172 139 q 201 121 189 121 q 222 130 214 121 q 231 150 231 139 m 206 1068 l 153 1010 l 29 1010 l 143 1135 l 267 1135 l 374 1010 l 254 1010 l 206 1068 z "},"õ":{"ha":403,"x_min":29,"x_max":374,"o":"m 80 928 q 105 954 80 928 q 201 979 131 979 q 323 928 272 979 q 374 807 374 878 l 374 168 q 323 47 374 97 q 201 -4 272 -4 q 80 47 131 -4 q 29 168 29 97 l 29 807 q 80 928 29 878 m 231 150 l 231 824 q 222 844 231 836 q 201 853 214 853 q 181 844 189 853 q 172 824 172 836 l 172 150 q 181 130 172 139 q 201 121 189 121 q 222 130 214 121 q 231 150 231 139 m 154 1054 q 114 1010 129 1054 l 61 1057 q 143 1142 97 1142 q 196 1128 167 1142 l 217 1117 q 251 1104 242 1104 q 289 1144 279 1104 l 342 1093 q 304 1031 326 1049 q 265 1014 282 1014 q 214 1028 242 1014 l 189 1042 q 154 1054 165 1054 z "},"ö":{"ha":403,"x_min":29,"x_max":374,"o":"m 80 928 q 105 954 80 928 q 201 979 131 979 q 323 928 272 979 q 374 807 374 878 l 374 168 q 323 47 374 97 q 201 -4 272 -4 q 80 47 131 -4 q 29 168 29 97 l 29 807 q 80 928 29 878 m 231 150 l 231 824 q 222 844 231 836 q 201 853 214 853 q 181 844 189 853 q 172 824 172 836 l 172 150 q 181 130 172 139 q 201 121 189 121 q 222 130 214 121 q 231 150 231 139 m 163 1010 l 47 1010 l 47 1125 l 163 1125 l 163 1010 m 356 1010 l 240 1010 l 240 1125 l 356 1125 l 356 1010 z "},"ø":{"ha":406,"x_min":31,"x_max":375,"o":"m 344 904 q 375 807 375 860 l 375 168 q 324 47 375 97 q 203 -4 274 -4 q 121 17 158 -4 l 111 -22 l 38 -22 l 61 71 q 31 168 31 114 l 31 807 q 81 928 31 878 q 203 979 132 979 q 285 958 247 979 l 294 996 l 368 996 l 344 904 m 174 824 l 174 517 l 232 747 l 232 824 q 224 844 232 836 q 203 853 215 853 q 182 844 190 853 q 174 824 174 836 m 182 130 q 186 125 182 130 q 203 121 190 121 q 224 130 215 121 q 232 150 232 139 l 232 458 l 174 228 l 174 150 q 182 130 174 139 z "},"ù":{"ha":410,"x_min":21,"x_max":378,"o":"m 233 974 l 376 974 l 376 168 q 326 47 376 97 q 205 -4 276 -4 q 83 47 133 -4 q 32 168 32 97 l 32 974 l 175 974 l 175 150 q 184 130 175 139 q 205 121 193 121 q 225 130 217 121 q 233 150 233 139 l 233 974 m 256 1010 l 165 1010 l 21 1129 l 178 1129 l 256 1010 z "},"ú":{"ha":408,"x_min":31,"x_max":399,"o":"m 233 150 l 233 974 l 376 974 l 376 168 q 326 47 376 97 q 204 -4 275 -4 q 83 47 133 -4 q 32 168 32 97 l 32 974 l 175 974 l 175 150 q 183 130 175 139 q 204 121 192 121 q 225 130 217 121 q 233 150 233 139 m 399 1129 l 253 1010 l 164 1010 l 242 1129 l 399 1129 z "},"û":{"ha":408,"x_min":31,"x_max":376,"o":"m 233 150 l 233 974 l 376 974 l 376 168 q 326 47 376 97 q 204 -4 275 -4 q 83 47 133 -4 q 32 168 32 97 l 32 974 l 175 974 l 175 150 q 183 130 175 139 q 204 121 192 121 q 225 130 217 121 q 233 150 233 139 m 208 1068 l 156 1010 l 32 1010 l 146 1135 l 269 1135 l 376 1010 l 257 1010 l 208 1068 z "},"ü":{"ha":408,"x_min":31,"x_max":376,"o":"m 233 974 l 376 974 l 376 168 q 326 47 376 97 q 204 -4 275 -4 q 83 47 133 -4 q 32 168 32 97 l 32 974 l 175 974 l 175 150 q 183 130 175 139 q 204 121 192 121 q 225 130 217 121 q 233 150 233 139 l 233 974 m 165 1010 l 50 1010 l 50 1125 l 165 1125 l 165 1010 m 358 1010 l 243 1010 l 243 1125 l 358 1125 l 358 1010 z "},"ý":{"ha":376,"x_min":14,"x_max":394,"o":"m 217 483 l 217 974 l 360 974 l 360 501 q 332 408 360 450 q 258 344 304 365 l 258 0 l 115 0 l 115 344 q 43 408 71 365 q 15 501 15 450 l 15 974 l 158 974 l 158 483 q 167 463 158 471 q 188 454 175 454 q 208 463 200 454 q 217 483 217 471 m 393 1129 l 249 1010 l 158 1010 l 236 1129 l 393 1129 z "},"ÿ":{"ha":375,"x_min":15,"x_max":360,"o":"m 217 974 l 360 974 l 360 501 q 332 408 360 450 q 258 344 304 365 l 258 0 l 115 0 l 115 344 q 43 408 71 365 q 15 501 15 450 l 15 974 l 158 974 l 158 483 q 167 463 158 471 q 188 454 175 454 q 208 463 200 454 q 217 483 217 471 l 217 974 m 149 1010 l 33 1010 l 33 1125 l 149 1125 l 149 1010 m 342 1010 l 226 1010 l 226 1125 l 342 1125 l 342 1010 z "},"Đ":{"ha":433,"x_min":8,"x_max":401,"o":"m 281 974 q 365 938 331 974 q 400 854 400 903 l 400 121 q 365 36 400 71 q 281 1 331 1 l 56 1 l 56 447 l 8 447 l 8 542 l 56 542 l 56 974 l 281 974 m 257 146 l 257 828 q 251 842 257 836 q 238 849 246 849 l 199 849 l 199 542 l 228 542 l 228 447 l 199 447 l 199 126 l 238 126 q 251 132 246 126 q 257 146 257 138 z "},"đ":{"ha":433,"x_min":8,"x_max":401,"o":"m 281 974 q 365 938 331 974 q 400 854 400 903 l 400 121 q 365 36 400 71 q 281 1 331 1 l 56 1 l 56 447 l 8 447 l 8 542 l 56 542 l 56 974 l 281 974 m 257 146 l 257 828 q 251 842 257 836 q 238 849 246 849 l 199 849 l 199 542 l 228 542 l 228 447 l 199 447 l 199 126 l 238 126 q 251 132 246 126 q 257 146 257 138 z "},"ı":{"ha":181,"x_min":31,"x_max":150,"o":"m 150 7 l 31 7 l 31 869 l 150 869 l 150 7 z "},"Œ":{"ha":576,"x_min":29,"x_max":578,"o":"m 576 126 l 576 1 l 244 1 q 201 -4 224 -4 q 80 47 131 -4 q 29 168 29 97 l 29 807 q 80 928 29 878 q 201 979 131 979 q 244 974 224 979 l 564 974 l 564 849 l 374 849 l 374 456 l 479 456 l 479 332 l 374 332 l 374 126 l 576 126 m 181 130 q 185 125 181 130 q 201 121 189 121 q 222 130 214 121 q 231 150 231 139 l 231 824 q 222 844 231 836 q 201 853 214 853 q 181 844 189 853 q 172 824 172 836 l 172 150 q 181 130 172 139 z "},"œ":{"ha":576,"x_min":29,"x_max":578,"o":"m 576 126 l 576 1 l 244 1 q 201 -4 224 -4 q 80 47 131 -4 q 29 168 29 97 l 29 807 q 80 928 29 878 q 201 979 131 979 q 244 974 224 979 l 564 974 l 564 849 l 374 849 l 374 456 l 479 456 l 479 332 l 374 332 l 374 126 l 576 126 m 181 130 q 185 125 181 130 q 201 121 189 121 q 222 130 214 121 q 231 150 231 139 l 231 824 q 222 844 231 836 q 201 853 214 853 q 181 844 189 853 q 172 824 172 836 l 172 150 q 181 130 172 139 z "},"Š":{"ha":394,"x_min":25,"x_max":371,"o":"m 77 926 q 102 951 77 926 q 199 976 128 976 q 320 926 269 976 q 371 804 371 875 l 371 543 q 361 533 371 533 l 238 533 q 228 543 228 533 l 228 821 q 219 842 228 833 q 199 850 211 850 q 178 842 186 850 q 169 821 169 833 l 169 558 q 207 483 169 513 l 228 467 l 293 417 q 371 261 371 358 l 371 165 q 320 44 371 94 q 199 -7 269 -7 q 77 44 128 -7 q 26 165 26 94 l 26 318 q 36 328 26 328 l 160 328 q 169 318 169 328 l 169 147 q 178 127 169 136 q 199 118 186 118 q 219 127 211 118 q 228 147 228 136 l 228 250 q 192 325 228 297 l 169 342 l 100 394 q 26 543 26 451 l 26 804 q 77 926 26 875 m 257 1010 l 133 1010 l 26 1135 l 146 1135 l 194 1076 l 247 1135 l 371 1135 l 257 1010 z "},"š":{"ha":394,"x_min":25,"x_max":371,"o":"m 77 926 q 102 951 77 926 q 199 976 128 976 q 320 926 269 976 q 371 804 371 875 l 371 543 q 361 533 371 533 l 238 533 q 228 543 228 533 l 228 821 q 219 842 228 833 q 199 850 211 850 q 178 842 186 850 q 169 821 169 833 l 169 558 q 207 483 169 513 l 228 467 l 293 417 q 371 261 371 358 l 371 165 q 320 44 371 94 q 199 -7 269 -7 q 77 44 128 -7 q 26 165 26 94 l 26 318 q 36 328 26 328 l 160 328 q 169 318 169 328 l 169 147 q 178 127 169 136 q 199 118 186 118 q 219 127 211 118 q 228 147 228 136 l 228 250 q 192 325 228 297 l 169 342 l 100 394 q 26 543 26 451 l 26 804 q 77 926 26 875 m 257 1010 l 133 1010 l 26 1135 l 146 1135 l 194 1076 l 247 1135 l 371 1135 l 257 1010 z "},"Ÿ":{"ha":375,"x_min":15,"x_max":360,"o":"m 217 974 l 360 974 l 360 501 q 332 408 360 450 q 258 344 304 365 l 258 0 l 115 0 l 115 344 q 43 408 71 365 q 15 501 15 450 l 15 974 l 158 974 l 158 483 q 167 463 158 471 q 188 454 175 454 q 208 463 200 454 q 217 483 217 471 l 217 974 m 149 1010 l 33 1010 l 33 1125 l 149 1125 l 149 1010 m 342 1010 l 226 1010 l 226 1125 l 342 1125 l 342 1010 z "},"Ž":{"ha":351,"x_min":3,"x_max":363,"o":"m 46 974 l 342 974 l 342 847 l 154 126 l 342 126 l 342 1 l 3 1 l 3 126 l 190 847 l 46 847 l 46 974 m 249 1010 l 124 1010 l 17 1135 l 138 1135 l 186 1076 l 239 1135 l 361 1135 l 249 1010 z "},"ž":{"ha":351,"x_min":3,"x_max":363,"o":"m 46 974 l 342 974 l 342 847 l 154 126 l 342 126 l 342 1 l 3 1 l 3 126 l 190 847 l 46 847 l 46 974 m 249 1010 l 124 1010 l 17 1135 l 138 1135 l 186 1076 l 239 1135 l 361 1135 l 249 1010 z "},"–":{"ha":513,"x_min":19,"x_max":493,"o":"m 492 418 l 19 418 l 19 522 l 492 522 l 492 418 z "},"—":{"ha":729,"x_min":19,"x_max":710,"o":"m 708 418 l 19 418 l 19 522 l 708 522 l 708 418 z "},"‘":{"ha":189,"x_min":19,"x_max":165,"o":"m 78 1003 l 164 1003 l 164 776 l 19 776 l 78 1003 z "},"’":{"ha":181,"x_min":24,"x_max":169,"o":"m 24 1001 l 168 1001 l 110 775 l 25 775 l 24 1001 z "},"“":{"ha":338,"x_min":19,"x_max":314,"o":"m 313 1003 l 314 776 l 169 776 l 228 1003 l 313 1003 m 19 776 l 78 1003 l 164 1003 l 164 776 l 19 776 z "},"”":{"ha":329,"x_min":22,"x_max":318,"o":"m 172 1001 l 318 1001 l 260 775 l 174 775 l 172 1001 m 24 775 l 22 1001 l 168 1001 l 111 775 l 24 775 z "},"„":{"ha":338,"x_min":24,"x_max":319,"o":"m 174 321 l 319 321 l 261 94 l 175 94 l 174 321 m 25 94 l 24 321 l 169 321 l 113 94 l 25 94 z "},"†":{"ha":306,"x_min":18,"x_max":288,"o":"m 214 640 l 286 640 l 286 558 l 213 558 l 213 79 l 93 79 l 93 558 l 18 558 l 18 640 l 94 640 l 94 763 l 214 763 l 214 640 z "},"•":{"ha":325,"x_min":25,"x_max":300,"o":"m 286 578 q 299 549 299 564 l 299 367 q 286 339 299 351 q 256 318 275 326 q 213 303 238 308 q 163 299 189 299 q 110 304 135 299 q 67 318 85 308 q 36 340 47 328 q 25 368 25 353 l 25 547 q 36 576 25 563 q 67 597 47 589 q 110 612 85 607 q 163 617 135 617 q 213 613 189 617 q 256 599 238 607 q 286 578 275 590 z "},"…":{"ha":651,"x_min":21,"x_max":631,"o":"m 140 267 l 21 267 l 21 383 l 140 383 l 140 267 m 385 267 l 265 267 l 265 383 l 385 383 l 385 267 m 629 267 l 510 267 l 510 383 l 629 383 l 629 267 z "},"‰":{"ha":1019,"x_min":21,"x_max":997,"o":"m 271 446 q 243 415 261 429 q 202 396 225 403 q 153 389 179 389 q 104 396 128 389 q 63 416 81 403 q 33 447 44 429 q 22 489 22 467 l 22 785 q 33 824 22 806 q 63 856 44 842 q 104 876 81 868 q 153 883 128 883 q 201 876 178 883 q 243 857 225 869 q 271 826 261 844 q 283 786 283 807 l 283 486 q 271 446 283 465 m 164 474 l 164 797 q 163 799 164 797 q 153 801 158 801 q 143 799 147 801 l 142 797 l 142 475 q 144 472 143 474 q 153 471 146 471 q 163 472 160 471 q 164 474 164 474 m 379 1001 l 503 1001 l 369 7 l 246 7 l 379 1001 m 664 593 q 693 563 682 581 q 704 522 704 544 l 704 221 q 693 182 704 200 q 664 151 682 165 q 624 131 647 139 q 575 124 600 124 q 525 131 549 124 q 483 151 501 139 q 454 183 465 165 q 443 224 443 203 l 443 521 q 454 561 443 542 q 483 592 465 578 q 525 613 501 606 q 575 619 549 619 q 624 613 600 619 q 664 593 647 606 m 585 210 l 585 533 q 583 535 585 535 q 575 538 581 538 q 564 535 569 538 q 563 533 564 533 l 563 211 q 565 208 564 210 q 575 207 568 207 q 583 208 581 207 q 585 210 585 210 m 985 563 q 996 522 996 544 l 996 221 q 985 182 996 200 q 957 151 975 165 q 915 131 939 139 q 867 124 892 124 q 817 131 840 124 q 775 151 793 139 q 746 183 757 165 q 735 224 735 203 l 735 521 q 746 561 735 542 q 775 592 757 578 q 817 613 793 606 q 867 619 840 619 q 915 613 892 619 q 956 593 939 606 q 985 563 975 581 m 876 210 l 876 533 q 875 535 876 535 q 867 538 872 538 q 856 535 861 538 q 854 533 856 533 l 854 211 q 857 208 856 210 q 867 207 860 207 q 875 208 872 207 q 876 210 876 210 z "},"‹":{"ha":326,"x_min":69,"x_max":297,"o":"m 297 875 l 297 663 l 200 504 l 297 360 l 297 149 l 69 504 l 297 875 z "},"›":{"ha":326,"x_min":29,"x_max":257,"o":"m 29 875 l 257 504 l 29 149 l 29 360 l 126 504 l 29 663 l 29 875 z "},"€":{"ha":442,"x_min":15,"x_max":410,"o":"m 275 90 l 275 381 l 403 381 l 403 92 q 392 50 403 69 q 361 18 381 32 q 317 -1 343 6 q 261 -8 292 -8 q 208 -1 233 -8 q 164 19 182 7 q 132 51 143 32 q 119 93 119 71 l 119 428 l 15 428 l 15 524 l 119 524 l 119 567 l 17 567 l 17 663 l 119 663 l 119 917 q 131 958 119 939 q 163 990 142 976 q 207 1010 181 1003 q 263 1017 232 1017 q 317 1010 292 1017 q 361 990 342 1003 q 392 958 381 978 q 403 918 403 940 l 403 740 l 275 740 l 275 913 q 274 914 274 913 q 263 917 269 917 q 249 914 253 917 q 247 913 249 913 l 247 663 l 410 663 l 396 567 l 247 567 l 247 524 l 392 524 l 379 428 l 247 428 l 247 90 q 249 90 249 90 q 263 86 254 86 q 274 90 269 86 q 275 90 274 90 m 275 89 l 283 89 l 275 89 z "},"":{"ha":832,"x_min":35,"x_max":801,"o":"m 508 928 q 533 954 508 928 q 629 979 558 979 q 751 928 700 979 q 801 807 801 878 l 801 190 l 658 190 l 658 363 l 600 363 l 600 190 l 457 190 l 457 807 q 508 928 457 878 m 658 486 l 658 807 q 650 827 658 818 q 629 836 642 836 q 608 827 617 836 q 600 807 600 818 l 600 486 l 658 486 m 236 246 m 408 125 q 801 125 415 125 l 801 0 l 351 0 q 335 1 343 0 q 265 40 293 7 q 236 115 236 72 q 236 176 236 160 q 236 246 236 240 l 236 301 q 228 322 236 313 q 207 331 219 331 l 207 331 l 178 331 l 178 1 l 35 1 l 35 974 l 178 974 l 178 456 l 207 456 q 228 464 219 456 q 236 485 236 472 l 236 974 l 379 974 l 379 503 q 340 393 379 440 q 379 283 379 344 l 379 150 q 389 133 381 140 q 408 125 397 125 z "},"":{"ha":811,"x_min":33,"x_max":801,"o":"m 604 315 l 801 315 l 801 190 l 461 190 l 461 974 l 789 974 l 789 849 l 604 849 l 604 644 l 711 644 l 711 521 l 604 521 l 604 315 m 236 246 m 408 125 q 801 125 415 125 l 801 0 l 351 0 q 335 1 343 0 q 265 40 293 7 q 236 115 236 72 q 236 176 236 160 q 236 246 236 240 l 236 301 q 228 322 236 313 q 207 331 219 331 l 207 331 l 178 331 l 178 1 l 35 1 l 35 974 l 178 974 l 178 456 l 207 456 q 228 464 219 456 q 236 485 236 472 l 236 974 l 379 974 l 379 503 q 340 393 379 440 q 379 283 379 344 l 379 150 q 389 133 381 140 q 408 125 397 125 z "},"":{"ha":829,"x_min":35,"x_max":801,"o":"m 751 241 q 725 216 751 241 q 629 190 700 190 q 508 241 558 190 q 457 363 457 292 l 457 807 q 508 928 457 878 q 629 979 558 979 q 751 928 700 979 q 801 807 801 878 l 801 363 q 751 241 801 292 m 600 825 l 600 344 q 608 324 600 332 q 629 315 617 315 q 650 324 642 315 q 658 344 658 332 l 658 825 q 650 845 658 836 q 629 854 642 854 q 608 845 617 854 q 600 825 600 836 m 236 246 m 408 125 q 801 125 415 125 l 801 0 l 351 0 q 335 1 343 0 q 265 40 293 7 q 236 115 236 72 q 236 176 236 160 q 236 246 236 240 l 236 301 q 228 322 236 313 q 207 331 219 331 l 207 331 l 178 331 l 178 1 l 35 1 l 35 974 l 178 974 l 178 456 l 207 456 q 228 464 219 456 q 236 485 236 472 l 236 974 l 379 974 l 379 503 q 340 393 379 440 q 379 283 379 344 l 379 150 q 389 133 381 140 q 408 125 397 125 l 408 125 z "},"":{"ha":832,"x_min":33,"x_max":801,"o":"m 658 974 l 801 974 l 801 363 q 751 241 801 292 q 629 190 700 190 q 508 241 558 190 q 457 363 457 292 l 457 974 l 600 974 l 600 344 q 608 324 600 332 q 629 315 617 315 q 650 324 642 315 q 658 344 658 332 l 658 974 m 236 246 m 408 125 q 801 125 415 125 l 801 0 l 351 0 q 335 1 343 0 q 265 40 293 7 q 236 115 236 72 q 236 176 236 160 q 236 246 236 240 l 236 301 q 228 322 236 313 q 207 331 219 331 l 207 331 l 178 331 l 178 1 l 35 1 l 35 974 l 178 974 l 178 456 l 207 456 q 228 464 219 456 q 236 485 236 472 l 236 974 l 379 974 l 379 503 q 340 393 379 440 q 379 283 379 344 l 379 150 q 389 133 381 140 q 408 125 397 125 z "},"":{"ha":633,"x_min":33,"x_max":600,"o":"m 236 246 m 408 125 q 600 125 415 125 l 600 0 l 351 0 q 335 1 343 0 q 265 40 293 7 q 236 115 236 72 q 236 176 236 160 q 236 246 236 240 l 236 301 q 228 322 236 313 q 207 331 219 331 l 207 331 l 178 331 l 178 1 l 35 1 l 35 974 l 178 974 l 178 456 l 207 456 q 228 464 219 456 q 236 485 236 472 l 236 974 l 379 974 l 379 503 q 340 393 379 440 q 379 283 379 344 l 379 150 q 389 133 381 140 q 408 125 397 125 m 600 190 l 457 190 l 457 974 l 600 974 l 600 190 z "},"":{"ha":832,"x_min":35,"x_max":801,"o":"m 508 928 q 533 954 508 928 q 629 979 558 979 q 751 928 700 979 q 801 807 801 878 l 801 190 l 658 190 l 658 363 l 600 363 l 600 190 l 457 190 l 457 807 q 508 928 457 878 m 658 486 l 658 807 q 650 827 658 818 q 629 836 642 836 q 608 827 617 836 q 600 807 600 818 l 600 486 l 658 486 m 408 125 q 801 125 415 125 l 801 0 l 351 0 q 347 0 350 0 q 335 1 342 0 q 265 40 293 7 q 236 115 236 72 l 236 300 q 228 320 236 311 q 207 329 219 329 l 207 329 l 178 329 l 178 0 l 35 0 l 35 972 l 178 972 l 260 972 q 344 937 308 972 q 379 853 379 901 l 379 501 q 340 392 379 439 q 379 282 379 344 l 379 150 q 389 132 381 139 q 408 125 397 125 m 236 483 l 236 828 q 231 841 236 835 q 217 847 225 847 l 178 847 l 178 454 l 207 454 q 228 463 219 454 q 236 483 236 471 z "},"":{"ha":811,"x_min":33,"x_max":801,"o":"m 604 315 l 801 315 l 801 190 l 461 190 l 461 974 l 789 974 l 789 849 l 604 849 l 604 644 l 711 644 l 711 521 l 604 521 l 604 315 m 408 125 q 801 125 415 125 l 801 0 l 351 0 q 347 0 350 0 q 335 1 342 0 q 265 40 293 7 q 236 115 236 72 l 236 300 q 228 320 236 311 q 207 329 219 329 l 207 329 l 178 329 l 178 0 l 35 0 l 35 972 l 178 972 l 260 972 q 344 937 308 972 q 379 853 379 901 l 379 501 q 340 392 379 439 q 379 282 379 344 l 379 150 q 389 132 381 139 q 408 125 397 125 m 236 483 l 236 828 q 231 841 236 835 q 217 847 225 847 l 178 847 l 178 454 l 207 454 q 228 463 219 454 q 236 483 236 471 z "},"":{"ha":829,"x_min":35,"x_max":801,"o":"m 508 928 q 533 954 508 928 q 629 979 558 979 q 751 928 700 979 q 801 807 801 878 l 801 363 q 751 241 801 292 q 629 190 700 190 q 508 241 558 190 q 457 363 457 292 l 457 807 q 508 928 457 878 m 658 344 l 658 825 q 650 845 658 836 q 629 854 642 854 q 608 845 617 854 q 600 825 600 836 l 600 344 q 608 324 600 332 q 629 315 617 315 q 650 324 642 315 q 658 344 658 332 m 408 125 q 801 125 415 125 l 801 0 l 351 0 q 347 0 350 0 q 335 1 342 0 q 265 40 293 7 q 236 115 236 72 l 236 300 q 228 320 236 311 q 207 329 219 329 l 207 329 l 178 329 l 178 0 l 35 0 l 35 972 l 178 972 l 260 972 q 344 937 308 972 q 379 853 379 901 l 379 501 q 340 392 379 439 q 379 282 379 344 l 379 150 q 389 132 381 139 q 408 125 397 125 m 236 483 l 236 828 q 231 841 236 835 q 217 847 225 847 l 178 847 l 178 454 l 207 454 q 228 463 219 454 q 236 483 236 471 z "},"":{"ha":832,"x_min":33,"x_max":801,"o":"m 658 974 l 801 974 l 801 363 q 751 241 801 292 q 629 190 700 190 q 508 241 558 190 q 457 363 457 292 l 457 974 l 600 974 l 600 344 q 608 324 600 332 q 629 315 617 315 q 650 324 642 315 q 658 344 658 332 l 658 974 m 408 125 q 801 125 415 125 l 801 0 l 351 0 q 347 0 350 0 q 335 1 342 0 q 265 40 293 7 q 236 115 236 72 l 236 300 q 228 320 236 311 q 207 329 219 329 l 207 329 l 178 329 l 178 0 l 35 0 l 35 972 l 178 972 l 260 972 q 344 937 308 972 q 379 853 379 901 l 379 501 q 340 392 379 439 q 379 282 379 344 l 379 150 q 389 132 381 139 q 408 125 397 125 m 236 483 l 236 828 q 231 841 236 835 q 217 847 225 847 l 178 847 l 178 454 l 207 454 q 228 463 219 454 q 236 483 236 471 z "},"":{"ha":633,"x_min":33,"x_max":600,"o":"m 408 125 q 600 125 415 125 l 600 0 l 351 0 q 347 0 350 0 q 335 1 342 0 q 265 40 293 7 q 236 115 236 72 l 236 300 q 228 320 236 311 q 207 329 219 329 l 207 329 l 178 329 l 178 0 l 35 0 l 35 972 l 178 972 l 260 972 q 344 937 308 972 q 379 853 379 901 l 379 501 q 340 392 379 439 q 379 282 379 344 l 379 150 q 389 132 381 139 q 408 125 397 125 m 236 483 l 236 828 q 231 841 236 835 q 217 847 225 847 l 178 847 l 178 454 l 207 454 q 228 463 219 454 q 236 483 236 471 m 600 190 l 457 190 l 457 974 l 600 974 l 600 190 z "},"":{"ha":719,"x_min":-10,"x_max":689,"o":"m 395 740 q 420 765 395 740 q 517 790 446 790 q 638 740 588 790 q 689 618 689 689 l 689 1 l 546 1 l 546 175 l 488 175 l 488 1 l 344 1 l 344 618 q 395 740 344 689 m 546 297 l 546 618 q 538 639 546 631 q 517 647 529 647 q 496 639 504 647 q 488 618 488 631 l 488 297 l 546 297 m -10 974 l 689 974 l 689 850 l 267 850 l 267 1 l 124 1 l 124 850 l -10 850 l -10 974 z "},"":{"ha":717,"x_min":-10,"x_max":689,"o":"m 395 740 q 420 765 395 740 q 517 790 446 790 q 638 740 588 790 q 689 618 689 689 l 689 174 q 638 52 689 103 q 517 1 588 1 q 395 52 446 1 q 344 174 344 103 l 344 618 q 395 740 344 689 m 546 156 l 546 636 q 538 656 546 647 q 517 665 529 665 q 496 656 504 665 q 488 636 488 647 l 488 156 q 496 135 488 143 q 517 126 504 126 q 538 135 529 126 q 546 156 546 143 m -10 974 l 689 974 l 689 850 l 267 850 l 267 1 l 124 1 l 124 850 l -10 850 l -10 974 z "},"":{"ha":699,"x_min":-10,"x_max":689,"o":"m 492 335 l 492 129 l 689 129 l 689 4 l 349 4 l 349 788 l 676 788 l 676 663 l 492 663 l 492 458 l 599 458 l 599 335 l 492 335 m -10 974 l 689 974 l 689 850 l 267 850 l 267 1 l 124 1 l 124 850 l -10 850 l -10 974 z "},"":{"ha":717,"x_min":-11,"x_max":685,"o":"m 540 974 l 683 974 l 683 174 q 633 52 683 103 q 512 1 583 1 q 390 52 440 1 q 339 174 339 103 l 339 785 l 482 785 l 482 156 q 491 135 482 143 q 512 126 500 126 q 532 135 524 126 q 540 156 540 143 l 540 974 m 482 974 l 482 850 l 267 850 l 267 1 l 124 1 l 124 850 l -10 850 l -10 974 l 482 974 z "},"":{"ha":517,"x_min":-10,"x_max":483,"o":"m 482 1 l 339 1 l 339 785 l 482 785 l 482 1 m -10 974 l 482 974 l 482 850 l 267 850 l 267 1 l 124 1 l 124 850 l -10 850 l -10 974 z "},"":{"ha":785,"x_min":35,"x_max":750,"o":"m 178 974 l 178 126 l 399 126 l 399 1 l 35 1 l 35 974 l 178 974 m 590 974 l 750 974 l 750 1 l 607 1 l 607 465 l 531 1 l 475 1 l 399 465 l 399 190 l 256 190 l 256 974 l 415 974 l 503 439 l 590 974 z "},"":{"ha":704,"x_min":35,"x_max":669,"o":"m 178 974 l 178 126 l 399 126 l 399 1 l 35 1 l 35 974 l 178 974 m 526 974 l 669 974 l 669 1 l 528 1 l 399 521 l 399 190 l 256 190 l 256 974 l 403 974 l 526 454 l 526 974 z "},"":{"ha":832,"x_min":35,"x_max":801,"o":"m 508 928 q 533 954 508 928 q 629 979 558 979 q 751 928 700 979 q 801 807 801 878 l 801 190 l 658 190 l 658 363 l 600 363 l 600 190 l 457 190 l 457 807 q 508 928 457 878 m 658 486 l 658 807 q 650 827 658 818 q 629 836 642 836 q 608 827 617 836 q 600 807 600 818 l 600 486 l 658 486 m 236 246 m 408 125 q 801 125 415 125 l 801 0 l 351 0 q 335 1 343 0 q 265 40 293 7 q 236 115 236 72 q 236 176 236 160 q 236 246 236 240 l 236 301 q 228 322 236 313 q 207 331 219 331 l 207 331 l 178 331 l 178 1 l 35 1 l 35 974 l 178 974 l 178 456 l 207 456 q 228 464 219 456 q 236 485 236 472 l 236 974 l 379 974 l 379 503 q 340 393 379 440 q 379 283 379 344 l 379 150 q 389 133 381 140 q 408 125 397 125 z "},"":{"ha":811,"x_min":33,"x_max":801,"o":"m 604 315 l 801 315 l 801 190 l 461 190 l 461 974 l 789 974 l 789 849 l 604 849 l 604 644 l 711 644 l 711 521 l 604 521 l 604 315 m 236 246 m 408 125 q 801 125 415 125 l 801 0 l 351 0 q 335 1 343 0 q 265 40 293 7 q 236 115 236 72 q 236 176 236 160 q 236 246 236 240 l 236 301 q 228 322 236 313 q 207 331 219 331 l 207 331 l 178 331 l 178 1 l 35 1 l 35 974 l 178 974 l 178 456 l 207 456 q 228 464 219 456 q 236 485 236 472 l 236 974 l 379 974 l 379 503 q 340 393 379 440 q 379 283 379 344 l 379 150 q 389 133 381 140 q 408 125 397 125 z "},"":{"ha":829,"x_min":35,"x_max":801,"o":"m 751 241 q 725 216 751 241 q 629 190 700 190 q 508 241 558 190 q 457 363 457 292 l 457 807 q 508 928 457 878 q 629 979 558 979 q 751 928 700 979 q 801 807 801 878 l 801 363 q 751 241 801 292 m 600 825 l 600 344 q 608 324 600 332 q 629 315 617 315 q 650 324 642 315 q 658 344 658 332 l 658 825 q 650 845 658 836 q 629 854 642 854 q 608 845 617 854 q 600 825 600 836 m 236 246 m 408 125 q 801 125 415 125 l 801 0 l 351 0 q 335 1 343 0 q 265 40 293 7 q 236 115 236 72 q 236 176 236 160 q 236 246 236 240 l 236 301 q 228 322 236 313 q 207 331 219 331 l 207 331 l 178 331 l 178 1 l 35 1 l 35 974 l 178 974 l 178 456 l 207 456 q 228 464 219 456 q 236 485 236 472 l 236 974 l 379 974 l 379 503 q 340 393 379 440 q 379 283 379 344 l 379 150 q 389 133 381 140 q 408 125 397 125 l 408 125 z "},"":{"ha":832,"x_min":33,"x_max":801,"o":"m 658 974 l 801 974 l 801 363 q 751 241 801 292 q 629 190 700 190 q 508 241 558 190 q 457 363 457 292 l 457 974 l 600 974 l 600 344 q 608 324 600 332 q 629 315 617 315 q 650 324 642 315 q 658 344 658 332 l 658 974 m 236 246 m 408 125 q 801 125 415 125 l 801 0 l 351 0 q 335 1 343 0 q 265 40 293 7 q 236 115 236 72 q 236 176 236 160 q 236 246 236 240 l 236 301 q 228 322 236 313 q 207 331 219 331 l 207 331 l 178 331 l 178 1 l 35 1 l 35 974 l 178 974 l 178 456 l 207 456 q 228 464 219 456 q 236 485 236 472 l 236 974 l 379 974 l 379 503 q 340 393 379 440 q 379 283 379 344 l 379 150 q 389 133 381 140 q 408 125 397 125 z "},"":{"ha":633,"x_min":33,"x_max":600,"o":"m 236 246 m 408 125 q 600 125 415 125 l 600 0 l 351 0 q 335 1 343 0 q 265 40 293 7 q 236 115 236 72 q 236 176 236 160 q 236 246 236 240 l 236 301 q 228 322 236 313 q 207 331 219 331 l 207 331 l 178 331 l 178 1 l 35 1 l 35 974 l 178 974 l 178 456 l 207 456 q 228 464 219 456 q 236 485 236 472 l 236 974 l 379 974 l 379 503 q 340 393 379 440 q 379 283 379 344 l 379 150 q 389 133 381 140 q 408 125 397 125 m 600 190 l 457 190 l 457 974 l 600 974 l 600 190 z "},"":{"ha":832,"x_min":35,"x_max":801,"o":"m 508 928 q 533 954 508 928 q 629 979 558 979 q 751 928 700 979 q 801 807 801 878 l 801 190 l 658 190 l 658 363 l 600 363 l 600 190 l 457 190 l 457 807 q 508 928 457 878 m 658 486 l 658 807 q 650 827 658 818 q 629 836 642 836 q 608 827 617 836 q 600 807 600 818 l 600 486 l 658 486 m 408 125 q 801 125 415 125 l 801 0 l 351 0 q 347 0 350 0 q 335 1 342 0 q 265 40 293 7 q 236 115 236 72 l 236 300 q 228 320 236 311 q 207 329 219 329 l 207 329 l 178 329 l 178 0 l 35 0 l 35 972 l 178 972 l 260 972 q 344 937 308 972 q 379 853 379 901 l 379 501 q 340 392 379 439 q 379 282 379 344 l 379 150 q 389 132 381 139 q 408 125 397 125 m 236 483 l 236 828 q 231 841 236 835 q 217 847 225 847 l 178 847 l 178 454 l 207 454 q 228 463 219 454 q 236 483 236 471 z "},"":{"ha":811,"x_min":33,"x_max":801,"o":"m 604 315 l 801 315 l 801 190 l 461 190 l 461 974 l 789 974 l 789 849 l 604 849 l 604 644 l 711 644 l 711 521 l 604 521 l 604 315 m 408 125 q 801 125 415 125 l 801 0 l 351 0 q 347 0 350 0 q 335 1 342 0 q 265 40 293 7 q 236 115 236 72 l 236 300 q 228 320 236 311 q 207 329 219 329 l 207 329 l 178 329 l 178 0 l 35 0 l 35 972 l 178 972 l 260 972 q 344 937 308 972 q 379 853 379 901 l 379 501 q 340 392 379 439 q 379 282 379 344 l 379 150 q 389 132 381 139 q 408 125 397 125 m 236 483 l 236 828 q 231 841 236 835 q 217 847 225 847 l 178 847 l 178 454 l 207 454 q 228 463 219 454 q 236 483 236 471 z "},"":{"ha":829,"x_min":35,"x_max":801,"o":"m 508 928 q 533 954 508 928 q 629 979 558 979 q 751 928 700 979 q 801 807 801 878 l 801 363 q 751 241 801 292 q 629 190 700 190 q 508 241 558 190 q 457 363 457 292 l 457 807 q 508 928 457 878 m 658 344 l 658 825 q 650 845 658 836 q 629 854 642 854 q 608 845 617 854 q 600 825 600 836 l 600 344 q 608 324 600 332 q 629 315 617 315 q 650 324 642 315 q 658 344 658 332 m 408 125 q 801 125 415 125 l 801 0 l 351 0 q 347 0 350 0 q 335 1 342 0 q 265 40 293 7 q 236 115 236 72 l 236 300 q 228 320 236 311 q 207 329 219 329 l 207 329 l 178 329 l 178 0 l 35 0 l 35 972 l 178 972 l 260 972 q 344 937 308 972 q 379 853 379 901 l 379 501 q 340 392 379 439 q 379 282 379 344 l 379 150 q 389 132 381 139 q 408 125 397 125 m 236 483 l 236 828 q 231 841 236 835 q 217 847 225 847 l 178 847 l 178 454 l 207 454 q 228 463 219 454 q 236 483 236 471 z "},"":{"ha":832,"x_min":33,"x_max":801,"o":"m 658 974 l 801 974 l 801 363 q 751 241 801 292 q 629 190 700 190 q 508 241 558 190 q 457 363 457 292 l 457 974 l 600 974 l 600 344 q 608 324 600 332 q 629 315 617 315 q 650 324 642 315 q 658 344 658 332 l 658 974 m 408 125 q 801 125 415 125 l 801 0 l 351 0 q 347 0 350 0 q 335 1 342 0 q 265 40 293 7 q 236 115 236 72 l 236 300 q 228 320 236 311 q 207 329 219 329 l 207 329 l 178 329 l 178 0 l 35 0 l 35 972 l 178 972 l 260 972 q 344 937 308 972 q 379 853 379 901 l 379 501 q 340 392 379 439 q 379 282 379 344 l 379 150 q 389 132 381 139 q 408 125 397 125 m 236 483 l 236 828 q 231 841 236 835 q 217 847 225 847 l 178 847 l 178 454 l 207 454 q 228 463 219 454 q 236 483 236 471 z "},"":{"ha":633,"x_min":33,"x_max":600,"o":"m 408 125 q 600 125 415 125 l 600 0 l 351 0 q 347 0 350 0 q 335 1 342 0 q 265 40 293 7 q 236 115 236 72 l 236 300 q 228 320 236 311 q 207 329 219 329 l 207 329 l 178 329 l 178 0 l 35 0 l 35 972 l 178 972 l 260 972 q 344 937 308 972 q 379 853 379 901 l 379 501 q 340 392 379 439 q 379 282 379 344 l 379 150 q 389 132 381 139 q 408 125 397 125 m 236 483 l 236 828 q 231 841 236 835 q 217 847 225 847 l 178 847 l 178 454 l 207 454 q 228 463 219 454 q 236 483 236 471 m 600 190 l 457 190 l 457 974 l 600 974 l 600 190 z "},"":{"ha":719,"x_min":-10,"x_max":689,"o":"m 395 740 q 420 765 395 740 q 517 790 446 790 q 638 740 588 790 q 689 618 689 689 l 689 1 l 546 1 l 546 175 l 488 175 l 488 1 l 344 1 l 344 618 q 395 740 344 689 m 546 297 l 546 618 q 538 639 546 631 q 517 647 529 647 q 496 639 504 647 q 488 618 488 631 l 488 297 l 546 297 m -10 974 l 689 974 l 689 850 l 267 850 l 267 1 l 124 1 l 124 850 l -10 850 l -10 974 z "},"":{"ha":717,"x_min":-10,"x_max":689,"o":"m 395 740 q 420 765 395 740 q 517 790 446 790 q 638 740 588 790 q 689 618 689 689 l 689 174 q 638 52 689 103 q 517 1 588 1 q 395 52 446 1 q 344 174 344 103 l 344 618 q 395 740 344 689 m 546 156 l 546 636 q 538 656 546 647 q 517 665 529 665 q 496 656 504 665 q 488 636 488 647 l 488 156 q 496 135 488 143 q 517 126 504 126 q 538 135 529 126 q 546 156 546 143 m -10 974 l 689 974 l 689 850 l 267 850 l 267 1 l 124 1 l 124 850 l -10 850 l -10 974 z "},"":{"ha":699,"x_min":-10,"x_max":689,"o":"m 492 335 l 492 129 l 689 129 l 689 4 l 349 4 l 349 788 l 676 788 l 676 663 l 492 663 l 492 458 l 599 458 l 599 335 l 492 335 m -10 974 l 689 974 l 689 850 l 267 850 l 267 1 l 124 1 l 124 850 l -10 850 l -10 974 z "},"":{"ha":717,"x_min":-11,"x_max":685,"o":"m 540 974 l 683 974 l 683 174 q 633 52 683 103 q 512 1 583 1 q 390 52 440 1 q 339 174 339 103 l 339 785 l 482 785 l 482 156 q 491 135 482 143 q 512 126 500 126 q 532 135 524 126 q 540 156 540 143 l 540 974 m 482 974 l 482 850 l 267 850 l 267 1 l 124 1 l 124 850 l -10 850 l -10 974 l 482 974 z "},"":{"ha":517,"x_min":-10,"x_max":483,"o":"m 482 1 l 339 1 l 339 785 l 482 785 l 482 1 m -10 974 l 482 974 l 482 850 l 267 850 l 267 1 l 124 1 l 124 850 l -10 850 l -10 974 z "},"":{"ha":785,"x_min":35,"x_max":750,"o":"m 178 974 l 178 126 l 399 126 l 399 1 l 35 1 l 35 974 l 178 974 m 590 974 l 750 974 l 750 1 l 607 1 l 607 465 l 531 1 l 475 1 l 399 465 l 399 190 l 256 190 l 256 974 l 415 974 l 503 439 l 590 974 z "},"":{"ha":704,"x_min":35,"x_max":669,"o":"m 178 974 l 178 126 l 399 126 l 399 1 l 35 1 l 35 974 l 178 974 m 526 974 l 669 974 l 669 1 l 528 1 l 399 521 l 399 190 l 256 190 l 256 974 l 403 974 l 526 454 l 526 974 z "}}}
